<svg xmlns="http://www.w3.org/2000/svg" width="1em" height="1em" viewBox="0 0 32 32"><g fill="none"><g filter="url(#f1633id13)"><path fill="url(#f1633idt)" d="M18.687 24.856c.439-.192.621-.472.753-.637c1.186-1.48-1.343-5.875-4.954-8.418c-3.827-3.332-8.04-4.468-9.226-2.987c-.203.254-.363.6-.429.99L2.581 26.75c-.078 1.578.525 2.178.827 2.47c.547.532 1.61.983 2.72.593c4.281-1.649 8.292-3.097 12.558-4.957"/></g><path fill="url(#f1633idu)" d="M18.687 24.856c.439-.192.621-.472.753-.637c1.186-1.48-1.343-5.875-4.954-8.418c-3.827-3.332-8.04-4.468-9.226-2.987c-.203.254-.363.6-.429.99L2.581 26.75c-.078 1.578.525 2.178.827 2.47c.547.532 1.61.983 2.72.593c4.281-1.649 8.292-3.097 12.558-4.957"/><path fill="url(#f1633idv)" d="M18.687 24.856c.439-.192.621-.472.753-.637c1.186-1.48-1.343-5.875-4.954-8.418c-3.827-3.332-8.04-4.468-9.226-2.987c-.203.254-.363.6-.429.99L2.581 26.75c-.078 1.578.525 2.178.827 2.47c.547.532 1.61.983 2.72.593c4.281-1.649 8.292-3.097 12.558-4.957"/><path fill="url(#f1633idw)" d="M18.687 24.856c.439-.192.621-.472.753-.637c1.186-1.48-1.343-5.875-4.954-8.418c-3.827-3.332-8.04-4.468-9.226-2.987c-.203.254-.363.6-.429.99L2.581 26.75c-.078 1.578.525 2.178.827 2.47c.547.532 1.61.983 2.72.593c4.281-1.649 8.292-3.097 12.558-4.957"/><g filter="url(#f1633id14)"><ellipse cx="12.298" cy="18.624" fill="url(#f1633idx)" rx="8.772" ry="3.464" transform="rotate(39.746 12.298 18.624)"/></g><g filter="url(#f1633id15)"><ellipse cx="12.555" cy="18.187" fill="url(#f1633idy)" rx="8.13" ry="2.915" transform="rotate(39.746 12.555 18.187)"/><ellipse cx="12.555" cy="18.187" fill="url(#f1633id0)" rx="8.13" ry="2.915" transform="rotate(39.746 12.555 18.187)"/><ellipse cx="12.555" cy="18.187" fill="url(#f1633id1)" rx="8.13" ry="2.915" transform="rotate(39.746 12.555 18.187)"/></g><circle cx="14.956" cy="16" r="1.203" fill="url(#f1633id2)"/><circle cx="14.956" cy="16" r="1.203" fill="url(#f1633id3)"/><circle cx="24.831" cy="22.906" r="1.203" fill="url(#f1633id4)"/><circle cx="24.831" cy="22.906" r="1.203" fill="url(#f1633id5)"/><circle cx="24.831" cy="22.906" r="1.203" fill="url(#f1633id6)"/><circle cx="23.823" cy="7.016" r="1.203" fill="url(#f1633id7)"/><circle cx="23.823" cy="7.016" r="1.203" fill="url(#f1633id8)"/><circle cx="9.991" cy="3.367" r="1.203" fill="url(#f1633id9)"/><circle cx="9.991" cy="3.367" r="1.203" fill="url(#f1633ida)"/><circle cx="9.991" cy="3.367" r="1.203" fill="url(#f1633idb)"/><circle cx="4.928" cy="8.109" r="1.203" fill="url(#f1633idc)"/><circle cx="4.928" cy="8.109" r="1.203" fill="url(#f1633idd)"/><path fill="url(#f1633ide)" d="M15.953 26.01c-2.606-.182-4.434-.962-7.395-3.408c-2.548-2.105-3.813-3.972-4.235-5.876l-.489 2.813c.2 1.102 1.06 2.64 2.763 4.18c2.227 2.013 4.445 3.437 6.638 3.375a182 182 0 0 0 2.718-1.085"/><path fill="url(#f1633idf)" d="M10.457 28.163c-1.253.07-2.946-.952-4.704-2.413c-1.5-1.297-2.24-2.706-2.396-3.466l-.496 2.857c.122.483.497 1.14 1.58 2.25c1.21 1.24 2.428 1.724 3.15 1.861l1.532-.582z"/><g filter="url(#f1633id16)"><path fill="url(#f1633idg)" fill-rule="evenodd" d="M27.903 13.109c-3.598-.703-5.724.945-6.398 1.684a1.05 1.05 0 1 1-1.552-1.414c1.045-1.147 3.873-3.207 8.353-2.331a1.05 1.05 0 0 1-.403 2.06" clip-rule="evenodd"/><path fill="url(#f1633idh)" fill-rule="evenodd" d="M27.903 13.109c-3.598-.703-5.724.945-6.398 1.684a1.05 1.05 0 1 1-1.552-1.414c1.045-1.147 3.873-3.207 8.353-2.331a1.05 1.05 0 0 1-.403 2.06" clip-rule="evenodd"/></g><path fill="url(#f1633idz)" fill-rule="evenodd" d="M19.104 2.082a.95.95 0 0 1 .905.994a18 18 0 0 1-.479 3.207c-.262 1.074-.665 2.264-1.286 3.285c.15.796.154 1.735-.011 2.803a.95.95 0 0 1-1.878-.29q.055-.357.08-.672a3 3 0 0 1-.566.226a2.44 2.44 0 0 1-2.04-.312c-1.074-.715-1.569-2.28-.738-3.56c.79-1.216 2.438-1.547 3.69-.681q.217.15.407.337c.2-.505.364-1.045.496-1.586c.281-1.152.398-2.232.427-2.846a.95.95 0 0 1 .993-.905m-2.947 7.14c-.144-.3-.316-.48-.456-.577c-.392-.271-.822-.145-1.017.154a.694.694 0 0 0 .198.943c.12.08.273.12.476.063c.184-.052.465-.2.799-.582" clip-rule="evenodd"/><path fill="url(#f1633idi)" fill-rule="evenodd" d="M19.104 2.082a.95.95 0 0 1 .905.994a18 18 0 0 1-.479 3.207c-.262 1.074-.665 2.264-1.286 3.285c.15.796.154 1.735-.011 2.803a.95.95 0 0 1-1.878-.29q.055-.357.08-.672a3 3 0 0 1-.566.226a2.44 2.44 0 0 1-2.04-.312c-1.074-.715-1.569-2.28-.738-3.56c.79-1.216 2.438-1.547 3.69-.681q.217.15.407.337c.2-.505.364-1.045.496-1.586c.281-1.152.398-2.232.427-2.846a.95.95 0 0 1 .993-.905m-2.947 7.14c-.144-.3-.316-.48-.456-.577c-.392-.271-.822-.145-1.017.154a.694.694 0 0 0 .198.943c.12.08.273.12.476.063c.184-.052.465-.2.799-.582" clip-rule="evenodd"/><path fill="url(#f1633idj)" fill-rule="evenodd" d="M19.104 2.082a.95.95 0 0 1 .905.994a18 18 0 0 1-.479 3.207c-.262 1.074-.665 2.264-1.286 3.285c.15.796.154 1.735-.011 2.803a.95.95 0 0 1-1.878-.29q.055-.357.08-.672a3 3 0 0 1-.566.226a2.44 2.44 0 0 1-2.04-.312c-1.074-.715-1.569-2.28-.738-3.56c.79-1.216 2.438-1.547 3.69-.681q.217.15.407.337c.2-.505.364-1.045.496-1.586c.281-1.152.398-2.232.427-2.846a.95.95 0 0 1 .993-.905m-2.947 7.14c-.144-.3-.316-.48-.456-.577c-.392-.271-.822-.145-1.017.154a.694.694 0 0 0 .198.943c.12.08.273.12.476.063c.184-.052.465-.2.799-.582" clip-rule="evenodd"/><path fill="url(#f1633idk)" fill-rule="evenodd" d="M19.104 2.082a.95.95 0 0 1 .905.994a18 18 0 0 1-.479 3.207c-.262 1.074-.665 2.264-1.286 3.285c.15.796.154 1.735-.011 2.803a.95.95 0 0 1-1.878-.29q.055-.357.08-.672a3 3 0 0 1-.566.226a2.44 2.44 0 0 1-2.04-.312c-1.074-.715-1.569-2.28-.738-3.56c.79-1.216 2.438-1.547 3.69-.681q.217.15.407.337c.2-.505.364-1.045.496-1.586c.281-1.152.398-2.232.427-2.846a.95.95 0 0 1 .993-.905m-2.947 7.14c-.144-.3-.316-.48-.456-.577c-.392-.271-.822-.145-1.017.154a.694.694 0 0 0 .198.943c.12.08.273.12.476.063c.184-.052.465-.2.799-.582" clip-rule="evenodd"/><path fill="url(#f1633id10)" fill-rule="evenodd" d="M13.842 22.606a19.5 19.5 0 0 1-2.115-1.365c1.086-1.347 3.027-3.113 5.557-4.388c4.157-2.096 8.741-.959 10.61-.218a1.25 1.25 0 1 1-.922 2.324c-1.601-.635-5.345-1.496-8.563.126c-2.122 1.07-3.7 2.508-4.567 3.521" clip-rule="evenodd"/><path fill="url(#f1633idl)" fill-rule="evenodd" d="M13.842 22.606a19.5 19.5 0 0 1-2.115-1.365c1.086-1.347 3.027-3.113 5.557-4.388c4.157-2.096 8.741-.959 10.61-.218a1.25 1.25 0 1 1-.922 2.324c-1.601-.635-5.345-1.496-8.563.126c-2.122 1.07-3.7 2.508-4.567 3.521" clip-rule="evenodd"/><path fill="url(#f1633idm)" fill-rule="evenodd" d="M13.842 22.606a19.5 19.5 0 0 1-2.115-1.365c1.086-1.347 3.027-3.113 5.557-4.388c4.157-2.096 8.741-.959 10.61-.218a1.25 1.25 0 1 1-.922 2.324c-1.601-.635-5.345-1.496-8.563.126c-2.122 1.07-3.7 2.508-4.567 3.521" clip-rule="evenodd"/><path fill="url(#f1633idn)" fill-rule="evenodd" d="M13.842 22.606a19.5 19.5 0 0 1-2.115-1.365c1.086-1.347 3.027-3.113 5.557-4.388c4.157-2.096 8.741-.959 10.61-.218a1.25 1.25 0 1 1-.922 2.324c-1.601-.635-5.345-1.496-8.563.126c-2.122 1.07-3.7 2.508-4.567 3.521" clip-rule="evenodd"/><g filter="url(#f1633id17)"><path fill="url(#f1633ido)" fill-rule="evenodd" d="M10.192 6.653A1.25 1.25 0 1 0 8.007 7.87c.507.91 1.131 2.197 1.211 3.853c.07 1.443-.27 3.273-1.651 5.469a18 18 0 0 0 1.715 1.939c1.948-2.833 2.537-5.371 2.433-7.529c-.107-2.23-.952-3.921-1.523-4.948" clip-rule="evenodd"/><path fill="url(#f1633idp)" fill-rule="evenodd" d="M10.192 6.653A1.25 1.25 0 1 0 8.007 7.87c.507.91 1.131 2.197 1.211 3.853c.07 1.443-.27 3.273-1.651 5.469a18 18 0 0 0 1.715 1.939c1.948-2.833 2.537-5.371 2.433-7.529c-.107-2.23-.952-3.921-1.523-4.948" clip-rule="evenodd"/></g><path fill="url(#f1633idq)" d="M12.855 8.212q.092-.228.234-.448c.79-1.217 2.438-1.548 3.69-.682q.217.15.407.337q.06-.155.118-.314l.005.02c-.257.81-.834 1.678-1.155 2.096c-.144-.3-.315-.48-.455-.576c-.392-.271-.823-.145-1.017.154l-.021.035z"/><path fill="url(#f1633idr)" d="M12.855 8.212q.092-.228.234-.448c.79-1.217 2.438-1.548 3.69-.682q.217.15.407.337q.06-.155.118-.314l.005.02c-.257.81-.834 1.678-1.155 2.096c-.144-.3-.315-.48-.455-.576c-.392-.271-.823-.145-1.017.154l-.021.035z"/><g filter="url(#f1633id18)"><path fill="#44b6ff" d="M18.242 9.568c.15.796.154 1.736-.011 2.803a.95.95 0 1 1-1.878-.29q.055-.357.08-.67c.982-.617 1.63-1.437 1.809-1.843"/></g><path fill="url(#f1633ids)" d="M18.242 9.568c.15.796.154 1.736-.011 2.803a.95.95 0 1 1-1.878-.29q.055-.357.08-.67c.982-.617 1.63-1.437 1.809-1.843"/><g filter="url(#f1633id19)"><path stroke="url(#f1633id11)" stroke-linecap="round" stroke-width="0.3" d="M16.55 8.172c-.266-.36-1.118-1-2.188-.336c-.359.223-.57 1.062-.406 1.633"/></g><g filter="url(#f1633id1a)"><path stroke="url(#f1633id12)" stroke-linecap="round" stroke-width="0.3" d="M19.472 3.016c-.084 1.51-.738 5.075-2.688 7.25"/></g><defs><radialGradient id="f1633id0" cx="0" cy="0" r="1" gradientTransform="rotate(-109.125 11.529 7.252)scale(6.4775 1.81427)" gradientUnits="userSpaceOnUse"><stop offset=".423" stop-color="#ca851e"/><stop offset="1" stop-color="#ca851e" stop-opacity="0"/></radialGradient><radialGradient id="f1633id1" cx="0" cy="0" r="1" gradientTransform="matrix(1.89264 -6.22832 3.64737 1.10835 15.236 20.612)" gradientUnits="userSpaceOnUse"><stop stop-color="#bc7f28"/><stop offset="1" stop-color="#bc7f28" stop-opacity="0"/></radialGradient><radialGradient id="f1633id2" cx="0" cy="0" r="1" gradientTransform="rotate(138.668 4.788 10.757)scale(1.72711)" gradientUnits="userSpaceOnUse"><stop stop-color="#5ac0ff"/><stop offset="1" stop-color="#3279b6"/></radialGradient><radialGradient id="f1633id3" cx="0" cy="0" r="1" gradientTransform="matrix(-1.63032 .59175 -.64863 -1.78704 15.193 15.834)" gradientUnits="userSpaceOnUse"><stop offset=".535" stop-color="#3a619e" stop-opacity="0"/><stop offset="1" stop-color="#3a619e"/></radialGradient><radialGradient id="f1633id4" cx="0" cy="0" r="1" gradientTransform="rotate(134.569 8.076 16.542)scale(1.97753)" gradientUnits="userSpaceOnUse"><stop stop-color="#fdd46c"/><stop offset="1" stop-color="#f09c53"/></radialGradient><radialGradient id="f1633id5" cx="0" cy="0" r="1" gradientTransform="rotate(100.827 3.31 21.505)scale(1.95883)" gradientUnits="userSpaceOnUse"><stop offset=".792" stop-color="#e76260" stop-opacity="0"/><stop offset=".964" stop-color="#e76260"/></radialGradient><radialGradient id="f1633id6" cx="0" cy="0" r="1" gradientTransform="matrix(-1.67412 -1.06415 1.25319 -1.9715 25.405 23.105)" gradientUnits="userSpaceOnUse"><stop offset=".482" stop-color="#aa885a" stop-opacity="0"/><stop offset=".907" stop-color="#aa885a"/></radialGradient><radialGradient id="f1633id7" cx="0" cy="0" r="1" gradientTransform="rotate(132.387 10.898 8.719)scale(2.06012)" gradientUnits="userSpaceOnUse"><stop stop-color="#ff46aa"/><stop offset="1" stop-color="#e3189d"/></radialGradient><radialGradient id="f1633id8" cx="0" cy="0" r="1" gradientTransform="matrix(-1.85938 -.21876 .29276 -2.48843 24.331 7.234)" gradientUnits="userSpaceOnUse"><stop offset=".522" stop-color="#b63173" stop-opacity="0"/><stop offset="1" stop-color="#b63173"/></radialGradient><radialGradient id="f1633id9" cx="0" cy="0" r="1" gradientTransform="rotate(139.574 4.858 3.427)scale(1.84118)" gradientUnits="userSpaceOnUse"><stop stop-color="#fff46f"/><stop offset="1" stop-color="#efb93c"/></radialGradient><radialGradient id="f1633ida" cx="0" cy="0" r="1" gradientTransform="rotate(-178.519 5.278 1.518)scale(1.91464 1.82297)" gradientUnits="userSpaceOnUse"><stop offset=".559" stop-color="#aa904b" stop-opacity="0"/><stop offset=".944" stop-color="#aa904b"/></radialGradient><radialGradient id="f1633idb" cx="0" cy="0" r="1" gradientTransform="matrix(-.4375 2 -2 -.4375 10.3 2.688)" gradientUnits="userSpaceOnUse"><stop offset=".772" stop-color="#c47072" stop-opacity="0"/><stop offset="1" stop-color="#c47072"/></radialGradient><radialGradient id="f1633idc" cx="0" cy="0" r="1" gradientTransform="rotate(132.387 1.21 5.098)scale(2.06012)" gradientUnits="userSpaceOnUse"><stop stop-color="#ff46aa"/><stop offset="1" stop-color="#e3189d"/></radialGradient><radialGradient id="f1633idd" cx="0" cy="0" r="1" gradientTransform="matrix(-1.85938 -.21876 .29276 -2.48843 5.436 8.328)" gradientUnits="userSpaceOnUse"><stop offset=".522" stop-color="#b63173" stop-opacity="0"/><stop offset="1" stop-color="#b63173"/></radialGradient><radialGradient id="f1633ide" cx="0" cy="0" r="1" gradientTransform="matrix(-2.90624 3.09375 -6.77356 -6.36302 11.222 25.078)" gradientUnits="userSpaceOnUse"><stop stop-color="#3365ff"/><stop offset="1" stop-color="#356db9"/></radialGradient><radialGradient id="f1633idf" cx="0" cy="0" r="1" gradientTransform="rotate(131.598 -2.591 15.673)scale(2.62017 6.62793)" gradientUnits="userSpaceOnUse"><stop stop-color="#3365ff"/><stop offset="1" stop-color="#356db9"/></radialGradient><radialGradient id="f1633idg" cx="0" cy="0" r="1" gradientTransform="rotate(168.283 13.157 7.358)scale(4.30854 1.60742)" gradientUnits="userSpaceOnUse"><stop stop-color="#ff3ba9"/><stop offset="1" stop-color="#f422a7"/></radialGradient><radialGradient id="f1633idh" cx="0" cy="0" r="1" gradientTransform="rotate(-127.355 16 1.624)scale(4.44241 7.91727)" gradientUnits="userSpaceOnUse"><stop offset=".752" stop-color="#b8306f" stop-opacity="0"/><stop offset="1" stop-color="#b8306f"/></radialGradient><radialGradient id="f1633idi" cx="0" cy="0" r="1" gradientTransform="rotate(128.217 7.687 7.173)scale(7.76064 4.747)" gradientUnits="userSpaceOnUse"><stop offset=".802" stop-color="#4274d2" stop-opacity="0"/><stop offset=".951" stop-color="#4274d2"/></radialGradient><radialGradient id="f1633idj" cx="0" cy="0" r="1" gradientTransform="matrix(1.09375 .23438 -.78682 3.6718 17.69 4.672)" gradientUnits="userSpaceOnUse"><stop stop-color="#4d8ec0"/><stop offset="1" stop-color="#4d8ec0" stop-opacity="0"/></radialGradient><radialGradient id="f1633idk" cx="0" cy="0" r="1" gradientTransform="rotate(141.953 9.567 4.557)scale(1.36904 1.23086)" gradientUnits="userSpaceOnUse"><stop stop-color="#5adeff"/><stop offset="1" stop-color="#5adeff" stop-opacity="0"/></radialGradient><radialGradient id="f1633idl" cx="0" cy="0" r="1" gradientTransform="rotate(-129.838 15.295 7.401)scale(7.98002 20.0036)" gradientUnits="userSpaceOnUse"><stop offset=".623" stop-color="#526579" stop-opacity="0"/><stop offset=".962" stop-color="#526579"/></radialGradient><radialGradient id="f1633idm" cx="0" cy="0" r="1" gradientTransform="matrix(-.2101 2.73113 -5.49097 -.42241 23.892 19.58)" gradientUnits="userSpaceOnUse"><stop offset=".396" stop-color="#6972ff"/><stop offset="1" stop-color="#6972ff" stop-opacity="0"/></radialGradient><radialGradient id="f1633idn" cx="0" cy="0" r="1" gradientTransform="matrix(.27136 -.7003 .55226 .214 27.954 17.279)" gradientUnits="userSpaceOnUse"><stop stop-color="#55bfff"/><stop offset="1" stop-color="#55bfff" stop-opacity="0"/></radialGradient><radialGradient id="f1633ido" cx="0" cy="0" r="1" gradientTransform="matrix(-1.1971 7.21318 -2.70234 -.44848 10.844 6.436)" gradientUnits="userSpaceOnUse"><stop stop-color="#ff3aaa"/><stop offset="1" stop-color="#fd2f89"/></radialGradient><radialGradient id="f1633idp" cx="0" cy="0" r="1" gradientTransform="rotate(31.176 -21.536 19.58)scale(4.80845 15.0903)" gradientUnits="userSpaceOnUse"><stop offset=".804" stop-color="#db2c6e" stop-opacity="0"/><stop offset="1" stop-color="#db2c6e"/></radialGradient><radialGradient id="f1633idq" cx="0" cy="0" r="1" gradientTransform="rotate(-119.23 11 -.054)scale(2.73834 2.04693)" gradientUnits="userSpaceOnUse"><stop stop-color="#336baf"/><stop offset="1" stop-color="#336baf" stop-opacity="0"/></radialGradient><radialGradient id="f1633idr" cx="0" cy="0" r="1" gradientTransform="matrix(-1.13335 -1.46866 .59503 -.45918 17.31 7.453)" gradientUnits="userSpaceOnUse"><stop stop-color="#49a4d4"/><stop offset="1" stop-color="#49a4d4" stop-opacity="0"/></radialGradient><radialGradient id="f1633ids" cx="0" cy="0" r="1" gradientTransform="matrix(-.21876 2.57813 -1.43484 -.12175 18.144 9.485)" gradientUnits="userSpaceOnUse"><stop stop-color="#4ab5f8"/><stop offset="1" stop-color="#4ab5f8" stop-opacity="0"/></radialGradient><linearGradient id="f1633idt" x1="4.222" x2="12.284" y1="19.984" y2="26.984" gradientUnits="userSpaceOnUse"><stop stop-color="#b3843c"/><stop offset="1" stop-color="#f17a61"/></linearGradient><linearGradient id="f1633idu" x1="3.331" x2="5.69" y1="21.068" y2="21.547" gradientUnits="userSpaceOnUse"><stop stop-color="#b1853b"/><stop offset="1" stop-color="#b1853b" stop-opacity="0"/></linearGradient><linearGradient id="f1633idv" x1="19.736" x2="15.753" y1="23.828" y2="24.484" gradientUnits="userSpaceOnUse"><stop stop-color="#f9c26c"/><stop offset="1" stop-color="#f9c26c" stop-opacity="0"/></linearGradient><linearGradient id="f1633idw" x1="11.155" x2="8.597" y1="12.391" y2="16.734" gradientUnits="userSpaceOnUse"><stop stop-color="#e6bf69"/><stop offset="1" stop-color="#e6bf69" stop-opacity="0"/></linearGradient><linearGradient id="f1633idx" x1="12.323" x2="13.352" y1="21.804" y2="14.923" gradientUnits="userSpaceOnUse"><stop stop-color="#fccb57"/><stop offset="1" stop-color="#f5bd55"/></linearGradient><linearGradient id="f1633idy" x1="5.147" x2="21.627" y1="17.865" y2="18.67" gradientUnits="userSpaceOnUse"><stop stop-color="#f3ab2c"/><stop offset="1" stop-color="#b57f1e"/></linearGradient><linearGradient id="f1633idz" x1="19.062" x2="14.58" y1="2.081" y2="12.823" gradientUnits="userSpaceOnUse"><stop stop-color="#20b2ee"/><stop offset="1" stop-color="#2689da"/></linearGradient><linearGradient id="f1633id10" x1="14.45" x2="27.86" y1="21.695" y2="18.181" gradientUnits="userSpaceOnUse"><stop stop-color="#3797e2"/><stop offset="1" stop-color="#37aeff"/></linearGradient><linearGradient id="f1633id11" x1="13.597" x2="16.378" y1="8.189" y2="7.508" gradientUnits="userSpaceOnUse"><stop stop-color="#4eaff2"/><stop offset="1" stop-color="#4eaff2" stop-opacity="0"/></linearGradient><linearGradient id="f1633id12" x1="19.253" x2="15.347" y1="1.953" y2="10.953" gradientUnits="userSpaceOnUse"><stop stop-color="#5bddff"/><stop offset="1" stop-color="#5bddff" stop-opacity="0"/></linearGradient><filter id="f1633id13" width="17.162" height="18.284" x="2.574" y="11.675" color-interpolation-filters="sRGB" filterUnits="userSpaceOnUse"><feFlood flood-opacity="0" result="BackgroundImageFix"/><feBlend in="SourceGraphic" in2="BackgroundImageFix" result="shape"/><feColorMatrix in="SourceAlpha" result="hardAlpha" values="0 0 0 0 0 0 0 0 0 0 0 0 0 0 0 0 0 0 127 0"/><feOffset dy="-.5"/><feGaussianBlur stdDeviation=".5"/><feComposite in2="hardAlpha" k2="-1" k3="1" operator="arithmetic"/><feColorMatrix values="0 0 0 0 0.92549 0 0 0 0 0.34902 0 0 0 0 0.384314 0 0 0 1 0"/><feBlend in2="shape" result="effect1_innerShadow_18_504"/></filter><filter id="f1633id14" width="15.203" height="13.421" x="4.697" y="11.913" color-interpolation-filters="sRGB" filterUnits="userSpaceOnUse"><feFlood flood-opacity="0" result="BackgroundImageFix"/><feBlend in="SourceGraphic" in2="BackgroundImageFix" result="shape"/><feGaussianBlur result="effect1_foregroundBlur_18_504" stdDeviation=".25"/></filter><filter id="f1633id15" width="13.45" height="11.725" x="5.83" y="12.324" color-interpolation-filters="sRGB" filterUnits="userSpaceOnUse"><feFlood flood-opacity="0" result="BackgroundImageFix"/><feBlend in="SourceGraphic" in2="BackgroundImageFix" result="shape"/><feGaussianBlur result="effect1_foregroundBlur_18_504" stdDeviation=".1"/></filter><filter id="f1633id16" width="9.725" height="4.549" x="19.679" y="10.587" color-interpolation-filters="sRGB" filterUnits="userSpaceOnUse"><feFlood flood-opacity="0" result="BackgroundImageFix"/><feBlend in="SourceGraphic" in2="BackgroundImageFix" result="shape"/><feColorMatrix in="SourceAlpha" result="hardAlpha" values="0 0 0 0 0 0 0 0 0 0 0 0 0 0 0 0 0 0 127 0"/><feOffset dx=".25" dy="-.25"/><feGaussianBlur stdDeviation=".25"/><feComposite in2="hardAlpha" k2="-1" k3="1" operator="arithmetic"/><feColorMatrix values="0 0 0 0 0.721569 0 0 0 0 0.270588 0 0 0 0 0.470588 0 0 0 1 0"/><feBlend in2="shape" result="effect1_innerShadow_18_504"/></filter><filter id="f1633id17" width="4.31" height="13.369" x="7.567" y="6.011" color-interpolation-filters="sRGB" filterUnits="userSpaceOnUse"><feFlood flood-opacity="0" result="BackgroundImageFix"/><feBlend in="SourceGraphic" in2="BackgroundImageFix" result="shape"/><feColorMatrix in="SourceAlpha" result="hardAlpha" values="0 0 0 0 0 0 0 0 0 0 0 0 0 0 0 0 0 0 127 0"/><feOffset dx=".15" dy=".25"/><feGaussianBlur stdDeviation=".5"/><feComposite in2="hardAlpha" k2="-1" k3="1" operator="arithmetic"/><feColorMatrix values="0 0 0 0 0.721569 0 0 0 0 0.184314 0 0 0 0 0.447059 0 0 0 1 0"/><feBlend in2="shape" result="effect1_innerShadow_18_504"/></filter><filter id="f1633id18" width="2.512" height="3.858" x="16.342" y="9.318" color-interpolation-filters="sRGB" filterUnits="userSpaceOnUse"><feFlood flood-opacity="0" result="BackgroundImageFix"/><feBlend in="SourceGraphic" in2="BackgroundImageFix" result="shape"/><feColorMatrix in="SourceAlpha" result="hardAlpha" values="0 0 0 0 0 0 0 0 0 0 0 0 0 0 0 0 0 0 127 0"/><feOffset dx=".5" dy="-.25"/><feGaussianBlur stdDeviation=".325"/><feComposite in2="hardAlpha" k2="-1" k3="1" operator="arithmetic"/><feColorMatrix values="0 0 0 0 0.239216 0 0 0 0 0.439216 0 0 0 0 0.768627 0 0 0 1 0"/><feBlend in2="shape" result="effect1_innerShadow_18_504"/></filter><filter id="f1633id19" width="3.55" height="2.822" x="13.45" y="7.097" color-interpolation-filters="sRGB" filterUnits="userSpaceOnUse"><feFlood flood-opacity="0" result="BackgroundImageFix"/><feBlend in="SourceGraphic" in2="BackgroundImageFix" result="shape"/><feGaussianBlur result="effect1_foregroundBlur_18_504" stdDeviation=".15"/></filter><filter id="f1633id1a" width="3.888" height="8.45" x="16.184" y="2.416" color-interpolation-filters="sRGB" filterUnits="userSpaceOnUse"><feFlood flood-opacity="0" result="BackgroundImageFix"/><feBlend in="SourceGraphic" in2="BackgroundImageFix" result="shape"/><feGaussianBlur result="effect1_foregroundBlur_18_504" stdDeviation=".225"/></filter></defs></g></svg>