<svg xmlns="http://www.w3.org/2000/svg" width="1em" height="1em" viewBox="0 0 24 24">
	<path d="M0 0h24v24H0z" fill="none" />
	<g fill="none" fill-rule="evenodd" clip-rule="evenodd">
		<path fill="#020202" d="M23.91 15.35q.09-.719.09-1.44c0-2.55-.32-2.42-1-2.18a8.4 8.4 0 0 0-1.6.76a8.5 8.5 0 0 0-.91.67c-.31.27-.6.55-.9.82c-.88-.15-1.75-.32-2.64-.45c-.43-.06-.87-.1-1.31-.14h-2.28c-.76 0-1.77.2-2.66.31a10 10 0 0 0 1.07-.91q.374-.415.68-.88c1.4-2 1.23-1.33 1.23-1.61c.07-.59.15-1.17.18-1.77v-.76a6 6 0 0 0-.07-.74c-.08-.59-.22-1.15-.33-1.74a.31.31 0 0 0-.29-.32a.32.32 0 0 0-.22.1a.35.35 0 0 0-.27.11c-.38.3-.77.57-1.15.88l-.46.4q-.222.207-.42.44c-.2.23-.37.46-.54.69c-1 0-2.06-.09-3.1-.12H5.59c-.48 0-.94 0-1.41.06c-.84.06-1.66.16-2.49.26a2 2 0 0 0 .12-.15A2 2 0 0 0 2 7.31c.12-.27.17-.54.27-.82a.37.37 0 1 0-.62-.4c-.22.21-.43.39-.63.61a3 3 0 0 0-.25.27q-.079.125-.14.26a5.9 5.9 0 0 0-.39 2.32c-.07.89-.1 1.79-.14 2.68c0 .24-.1.68-.1 1.05a1.7 1.7 0 0 0 .13.69c.085.14.197.263.33.36a12.3 12.3 0 0 0-.32 2.28a11 11 0 0 0 .08 1.62c.34 3.16-1.18 3 4.18 3c.76 0 1.52 0 2.27-.1c1.14-.07 2.27-.21 3.4-.29h.12c1.05.08 2.09.22 3.15.27h2.37l2.84-.27a.37.37 0 0 0 0-.73l-2.88-.13c-.78 0-1.56-.07-2.34-.06s-1.72.09-2.58.18c.08-.6.16-1.18.2-1.78v-1.74c-.08-.68-.23-1.34-.36-2l5 .16c5 .19 3.72-.26 3.69 1.94q-.002.67.07 1.34c.05.66.14 1.31.13 2a1 1 0 0 0 0 .14s-.09.1-.13.16a.33.33 0 0 0 0 .46a.34.34 0 0 0 .46 0c.52-.37 1.06-.69 1.57-1.07c.22-.16.42-.34.63-.52s.39-.37.58-.57s.36-.43.55-.64c.77-.12.76-2.49.77-2.63M11.45 7.78q.257-.186.48-.41a5 5 0 0 0 .42-.47c.14-.17.26-.36.39-.54c0 .24-.07.48-.08.72s0 .5 0 .75s0 .5.07.75c0 .48.13 1 .19 1.42h-.08c-.43.36-.84.71-1.24 1.11c-.16.16-.32.33-.47.51q-.194.235-.36.49c0-.25.08-.5.1-.75a6 6 0 0 0 0-.74a6 6 0 0 0-.05-.73c-.07-.54-.2-1.06-.31-1.59q.484-.235.94-.52m-7.25.93h1.42c.48 0 .94 0 1.42-.07c3.46-.22 2.75-.67 2.62 1.33v.73c0 .24 0 .48.05.72c.06.56.15 1.11.2 1.67a.37.37 0 0 0 .11.27v.07c-.61 0-1.23.07-1.85.09H3.11a10 10 0 0 1-1.19 0a4 4 0 0 1-.51-.08c-.06 0-.15 0-.16-.06v-1.17c-.05-.89-.12-1.77-.13-2.66v-1c1 .04 2.03.13 3.08.16m5.73 11.37c-1.07-.11-2.13-.11-3.2-.11H5.3c-.43 0-.94 0-1.42.07c-.86.07-1.71.17-2.56.26c0-.79.08-1.58.07-2.38c0-.52 0-1.05-.06-1.57s-.08-1.11-.11-1.65c.628.106 1.265.14 1.9.1c1.45-.11 2.89-.18 4.33-.3c.77-.07 1.54-.16 2.3-.27q.068 1.154 0 2.31v.85c0 .28 0 .57.05.86c0 .62.13 1.22.18 1.84zm11.88-2.44a10 10 0 0 0-1 .85c-.17.17-.31.36-.46.54c.05-.37.14-.73.16-1.1s0-.58 0-.87a8 8 0 0 0-.07-.84c-.07-.55-.17-1.09-.25-1.63a7 7 0 0 0 1.14-.57q.465-.315.89-.68l.64-.53l-.09.76c0 .3 0 .59-.06.89s0 .59 0 .89c0 .51 0 1 .08 1.53c-.3.25-.65.5-.98.76" />
		<path fill="#0c6fff" d="M14.09 12.63c.44.071.891.044 1.32-.08c.81-.3.48-1-.25-1.14a2.08 2.08 0 0 0-1.37.16c-.79.4-.32.89.3 1.06M3.62 5.76c.44.065.89.038 1.32-.08c.81-.3.48-1-.25-1.15a2.14 2.14 0 0 0-1.37.16c-.79.39-.32.9.3 1.07m12.54 5.12c.44.071.892.044 1.32-.08c.8-.3.48-1-.26-1.14a2.12 2.12 0 0 0-1.36.16c-.8.39-.32.9.3 1.06M5.69 3.97c.432.09.878.09 1.31 0c.8-.3.48-1-.26-1.15a2.12 2.12 0 0 0-1.35.15c-.8.36-.32.87.3 1m12.7 8.66c.44.071.891.044 1.32-.08c.8-.3.48-1-.25-1.14a2.08 2.08 0 0 0-1.37.16c-.79.4-.32.89.3 1.06M7.92 5.76c.44.065.89.038 1.32-.08c.8-.3.48-1-.26-1.15a2.12 2.12 0 0 0-1.36.16c-.79.39-.32.9.3 1.07m12.54 5.12c.44.071.891.044 1.32-.08c.8-.3.47-1-.26-1.14a2.16 2.16 0 0 0-1.37.16c-.79.39-.31.9.31 1.06M10 3.97c.432.09.878.09 1.31 0c.8-.3.48-1-.26-1.15a2.16 2.16 0 0 0-1.37.15c-.79.36-.31.87.32 1" />
	</g>
</svg>
