<svg xmlns="http://www.w3.org/2000/svg" width="1em" height="1em" viewBox="0 0 24 24">
  <path
    fill="hsl(var(--p, 262 80% 58%) / 1)"
    d="M21.33 12.91c.09 1.55-.62 3.04-1.89 3.95l.77 1.49c.23.45.26.98.06 1.45c-.19.47-.58.84-1.06 1l-.79.25a1.69 1.69 0 0 1-1.86-.55L14.44 18c-.89-.15-1.73-.53-2.44-1.1c-.5.15-1 .23-1.5.23c-.88 0-1.76-.27-2.5-.79c-.53.16-1.07.23-1.62.22c-.79.01-1.57-.15-2.3-.45a4.1 4.1 0 0 1-2.43-3.61c-.08-.72.04-1.45.35-2.11c-.29-.75-.32-1.57-.07-2.33C2.3 7.11 3 6.32 3.87 5.82c.58-1.69 2.21-2.82 4-2.7c1.6-1.5 4.05-1.66 5.83-.37c.42-.11.86-.17 1.3-.17c1.36-.03 2.65.57 3.5 1.64c2.04.53 3.5 2.35 3.58 4.47c.05 1.11-.25 2.2-.86 3.13c.07.36.11.72.11 1.09m-5-1.41c.57.07 1.02.5 1.02 1.07a1 1 0 0 1-1 1h-.63c-.32.9-.88 1.69-1.62 2.29c.25.09.51.14.77.21c5.13-.07 4.53-3.2 4.53-3.25a2.59 2.59 0 0 0-2.69-2.49a1 1 0 0 1-1-1a1 1 0 0 1 1-1c1.23.03 2.41.49 3.33 1.3c.05-.29.08-.59.08-.89c-.06-1.24-.62-2.32-2.87-2.53c-1.25-2.96-4.4-1.32-4.4-.4c-.03.23.21.72.25.75a1 1 0 0 1 1 1c0 .55-.45 1-1 1c-.53-.02-1.03-.22-1.43-.56c-.48.31-1.03.5-1.6.56c-.57.05-1.04-.35-1.07-.9a.97.97 0 0 1 .88-1.1c.16-.02.94-.14.94-.77c0-.66.25-1.29.68-1.79c-.92-.25-1.91.08-2.91 1.29C6.75 5 6 5.25 5.45 7.2C4.5 7.67 4 8 3.78 9c1.08-.22 2.19-.13 3.22.25c.5.19.78.75.59 1.29c-.19.52-.77.78-1.29.59c-.73-.32-1.55-.34-2.3-.06c-.32.27-.32.83-.32 1.27c0 .74.37 1.43 1 1.83c.53.27 1.12.41 1.71.4q-.225-.39-.39-.81a1.038 1.038 0 0 1 1.96-.68c.4 1.14 1.42 1.92 2.62 2.05c1.37-.07 2.59-.88 3.19-2.13c.23-1.38 1.34-1.5 2.56-1.5m2 7.47l-.62-1.3l-.71.16l1 1.25zm-4.65-8.61a1 1 0 0 0-.91-1.03c-.71-.04-1.4.2-1.93.67c-.57.58-.87 1.38-.84 2.19a1 1 0 0 0 1 1c.57 0 1-.45 1-1c0-.27.07-.54.23-.76c.12-.1.27-.15.43-.15c.55.03 1.02-.38 1.02-.92"
  />
  <path
    fill="hsl(var(--s, 186 72% 52%) / .42)"
    d="M18.92 12.71c0 .04.45 2.42-3.5 2.7c-.41-.1-.76-.17-1.08-.29a5.4 5.4 0 0 0 1.19-1.7h.82a.86.86 0 0 0 .85-.85c0-.49-.38-.83-.8-.88c-.94 0-1.91.08-2.12 1.22c-.53 1.02-1.5 1.68-2.63 1.74c-.98-.12-1.82-.76-2.14-1.68a.88.88 0 0 0-1.66.58q.135.345.32.66c-.5.01-.98-.1-1.44-.33a1.88 1.88 0 0 1-.84-1.52c0-.37 0-.83.2-1.05c.62-.23 1.31-.22 1.92.05a.85.85 0 0 0 1.09-.5a.86.86 0 0 0-.49-1.09a4.5 4.5 0 0 0-2.68-.21c.18-.83.58-1.09 1.37-1.49c.38-1.62.98-1.84 2.44-2.79c.84-1.01 1.67-1.38 2.44-1.17c-.36.43-.56.96-.56 1.53c0 .54-.64.64-.78.66a.82.82 0 0 0-.73.93c.03.47.42.8.89.76a3.4 3.4 0 0 0 1.34-.47c.33.29.75.45 1.19.47a.85.85 0 0 0 .84-.85a.86.86 0 0 0-.84-.85c-.03-.02-.23-.43-.2-.62c0-.76 2.62-2.12 3.66.33c1.87.18 2.34 1.08 2.39 2.11c0 .25-.02.49-.06.73a4.74 4.74 0 0 0-2.77-1.08a.85.85 0 0 0-.85.85c0 .46.37.85.85.85a2.27 2.27 0 0 1 2.24 2.07"
  />
  <path
    fill="hsl(var(--a, 43 96% 58%) / .9)"
    d="M18.33 18.97l-.62-1.3l-.71.16l1 1.25z"
  />
  <path
    fill="hsl(var(--in, 199 92% 56%) / .75)"
    d="M13.68 10.36a1 1 0 0 0-.91-1.03c-.71-.04-1.4.2-1.93.67c-.57.58-.87 1.38-.84 2.19a1 1 0 0 0 1 1c.57 0 1-.45 1-1c0-.27.07-.54.23-.76c.12-.1.27-.15.43-.15c.55.03 1.02-.38 1.02-.92"
  />
  <path
    fill="hsl(var(--bc, 240 10% 18%) / .18)"
    d="M21.33 12.91c.09 1.55-.62 3.04-1.89 3.95l.77 1.49c.23.45.26.98.06 1.45c-.19.47-.58.84-1.06 1l-.79.25a1.69 1.69 0 0 1-1.86-.55L14.44 18c-.89-.15-1.73-.53-2.44-1.1c-.5.15-1 .23-1.5.23c-.88 0-1.76-.27-2.5-.79c-.53.16-1.07.23-1.62.22c-.79.01-1.57-.15-2.3-.45a4.1 4.1 0 0 1-2.43-3.61c-.08-.72.04-1.45.35-2.11c-.29-.75-.32-1.57-.07-2.33C2.3 7.11 3 6.32 3.87 5.82c.58-1.69 2.21-2.82 4-2.7c1.6-1.5 4.05-1.66 5.83-.37c.42-.11.86-.17 1.3-.17c1.36-.03 2.65.57 3.5 1.64c2.04.53 3.5 2.35 3.58 4.47c.05 1.11-.25 2.2-.86 3.13c.07.36.11.72.11 1.09m-5-1.41c.57.07 1.02.5 1.02 1.07a1 1 0 0 1-1 1h-.63c-.32.9-.88 1.69-1.62 2.29c.25.09.51.14.77.21c5.13-.07 4.53-3.2 4.53-3.25a2.59 2.59 0 0 0-2.69-2.49a1 1 0 0 1-1-1a1 1 0 0 1 1-1c1.23.03 2.41.49 3.33 1.3c.05-.29.08-.59.08-.89c-.06-1.24-.62-2.32-2.87-2.53c-1.25-2.96-4.4-1.32-4.4-.4c-.03.23.21.72.25.75a1 1 0 0 1 1 1c0 .55-.45 1-1 1c-.53-.02-1.03-.22-1.43-.56c-.48.31-1.03.5-1.6.56c-.57.05-1.04-.35-1.07-.9a.97.97 0 0 1 .88-1.1c.16-.02.94-.14.94-.77c0-.66.25-1.29.68-1.79c-.92-.25-1.91.08-2.91 1.29C6.75 5 6 5.25 5.45 7.2C4.5 7.67 4 8 3.78 9c1.08-.22 2.19-.13 3.22.25c.5.19.78.75.59 1.29c-.19.52-.77.78-1.29.59c-.73-.32-1.55-.34-2.3-.06c-.32.27-.32.83-.32 1.27c0 .74.37 1.43 1 1.83c.53.27 1.12.41 1.71.4q-.225-.39-.39-.81a1.038 1.038 0 0 1 1.96-.68c.4 1.14 1.42 1.92 2.62 2.05c1.37-.07 2.59-.88 3.19-2.13c.23-1.38 1.34-1.5 2.56-1.5m2 7.47l-.62-1.3l-.71.16l1 1.25zm-4.65-8.61a1 1 0 0 0-.91-1.03c-.71-.04-1.4.2-1.93.67c-.57.58-.87 1.38-.84 2.19a1 1 0 0 0 1 1c.57 0 1-.45 1-1c0-.27.07-.54.23-.76c.12-.1.27-.15.43-.15c.55.03 1.02-.38 1.02-.92"
  />
</svg>