<svg xmlns="http://www.w3.org/2000/svg" width="48" height="48" viewBox="0 0 48 48"><g fill="none" stroke-width="3"><path fill="#fff" d="M5.184 31.954C6.53 26.914 10.637 23 15.854 23c4.895 0 8.164 4.425 8.056 9.32l-.057 2.569a7 7 0 0 0 2.096 5.154l1.106 1.086c1.587 1.557.66 4.224-1.554 4.408c-2.867.237-6.41.463-9.501.463c-3.982 0-7.964-.375-10.451-.666c-1.47-.172-2.557-1.428-2.417-2.902c.32-3.363 1.175-7.188 2.052-10.478"/><path fill="#8fbffa" fill-rule="evenodd" d="M23.852 2.88a8 8 0 0 0-.716-.226a8 8 0 0 0-.734-.162c-1.002-.17-1.74.576-2.048 1.545c-1.75 5.533-3.818 13.022-5.428 19.005q.457-.042.928-.042c1.496 0 2.84.413 3.982 1.127l.688-2.47c1.508-5.409 3.23-11.58 4.324-16.415c.225-.992-.043-2.007-.996-2.361" clip-rule="evenodd"/><path stroke="#2859c5" stroke-linecap="round" stroke-linejoin="round" d="M5.184 31.954C6.53 26.914 10.637 23 15.854 23c4.895 0 8.164 4.425 8.056 9.32l-.057 2.569a7 7 0 0 0 2.096 5.154l1.106 1.086c1.587 1.557.66 4.224-1.554 4.408c-2.867.237-6.41.463-9.501.463c-3.982 0-7.964-.375-10.451-.666c-1.47-.172-2.557-1.428-2.417-2.902c.32-3.363 1.175-7.188 2.052-10.478"/><path stroke="#2859c5" stroke-linecap="round" stroke-linejoin="round" d="M20 24.018c1.68-6.23 3.462-12.468 4.853-18.773c.219-.993-.048-2.01-1-2.365a8 8 0 0 0-.717-.226a8 8 0 0 0-.734-.162c-1.002-.17-1.742.578-2.048 1.547c-1.96 6.191-3.542 12.522-5.213 18.792M45 45H35m7-8H32m7-8H29m-18.951 8.75c-.167 1.5 0 5.2 2 8m5-7.75s0 5 2.951 7.5"/></g></svg>