<svg xmlns="http://www.w3.org/2000/svg" width="32" height="32" viewBox="0 0 32 32"><rect width="32" height="32" fill="none"/><g fill="none"><path fill="url(#SVGUNiJkdnj)" d="M6 3a1 1 0 0 1 1-1h18a1 1 0 0 1 1 1v12H6z"/><path fill="url(#SVGBb3CJetW)" d="M26 15.5H6v3.25A3.25 3.25 0 0 0 9.25 22H13v5a3 3 0 1 0 6 0v-5h3.75A3.25 3.25 0 0 0 26 18.75z"/><path fill="url(#SVGm8zzae8F)" d="M6 15a1 1 0 0 1 1-1h18a1 1 0 0 1 1 1v1H6z"/><path fill="url(#SVGoCeymcXK)" d="M17 2v5a1 1 0 1 0 2 0V2z"/><path fill="url(#SVGoCeymcXK)" d="M23 9V2h-2v7a1 1 0 1 0 2 0"/><defs><linearGradient id="SVGUNiJkdnj" x1="12" x2="18.902" y1="-2.062" y2="20.028" gradientUnits="userSpaceOnUse"><stop offset=".085" stop-color="#ffcd0f"/><stop offset=".991" stop-color="#e67505"/></linearGradient><linearGradient id="SVGBb3CJetW" x1="6" x2="7.262" y1="10.383" y2="33.752" gradientUnits="userSpaceOnUse"><stop offset=".125" stop-color="#ac80ff"/><stop offset="1" stop-color="#5750e2"/></linearGradient><linearGradient id="SVGm8zzae8F" x1="10.756" x2="10.897" y1="14.266" y2="16.523" gradientUnits="userSpaceOnUse"><stop offset=".125" stop-color="#9c6cfe"/><stop offset="1" stop-color="#5750e2"/></linearGradient><linearGradient id="SVGoCeymcXK" x1="17" x2="23.575" y1="-.222" y2="7.877" gradientUnits="userSpaceOnUse"><stop stop-color="#ff921f"/><stop offset="1" stop-color="#eb4824"/></linearGradient></defs></g></svg>