<svg xmlns="http://www.w3.org/2000/svg" width="1em" height="1em" viewBox="0 0 14 14">
	<path d="M0 0h14v14H0z" fill="none" />
	<g fill="none">
		<path fill="#fff" fill-rule="evenodd" d="M6.096 2.538L.852 3.944a.475.475 0 0 0-.336.58l2.308 8.619a.475.475 0 0 0 .582.335l6.41-1.735l-.127-.317l-5.117-1.37a.475.475 0 0 1-.336-.582z" clip-rule="evenodd" />
		<path fill="#d7e0ff" d="M6.546.857a.475.475 0 0 1 .582-.336l6.02 1.613a.475.475 0 0 1 .336.581l-2.31 8.618a.475.475 0 0 1-.582.335l-6.02-1.612a.475.475 0 0 1-.336-.582z" />
		<path stroke="#4147d5" stroke-linecap="round" stroke-linejoin="round" d="M6.546.857a.475.475 0 0 1 .582-.335l6.02 1.612a.475.475 0 0 1 .336.581l-2.31 8.618a.475.475 0 0 1-.582.335l-6.02-1.612a.475.475 0 0 1-.336-.581z" />
		<path stroke="#4147d5" stroke-linecap="round" stroke-linejoin="round" d="M6.108 2.535L.852 3.944a.475.475 0 0 0-.336.581l2.308 8.618a.475.475 0 0 0 .582.335l3.01-.806" />
	</g>
</svg>
