<svg xmlns="http://www.w3.org/2000/svg" width="48" height="48" viewBox="0 0 48 48"><rect width="48" height="48" fill="none"/><g fill="none"><path fill="#25b7d3" d="M24 47.998c13.255 0 24-10.745 24-24C48 10.746 37.255 0 24 0S0 10.745 0 23.999s10.745 23.999 24 23.999"/><path fill="#f0f1f1" d="M30.982 11.782L24 15.272l-6.982-3.49l-6.981 3.49v22.69l6.981-3.49L24 37.962l6.982-3.49l6.982 3.49v-22.69z"/><path fill="#fff" d="m10.037 37.962l6.981-3.49v-22.69l-6.981 3.49zm13.963 0l6.982-3.49v-22.69L24 15.272z"/><path fill="#fa5655" d="M12.09 30.962a.435.435 0 0 1-.289-.546s.097-.315.277-.84a.436.436 0 1 1 .825.283a29 29 0 0 0-.268.814a.436.436 0 0 1-.545.289m14.454-2.101a.436.436 0 1 1 .434-.757c.424.243.886.296 1.348.23a.435.435 0 0 1 .484.541a.44.44 0 0 1-.362.323c-.682.097-1.3.01-1.904-.337m3.039-.467a.434.434 0 0 1 .127-.604c.397-.26.793-.61 1.177-1.041a.436.436 0 1 1 .652.58c-.435.49-.89.89-1.352 1.192a.44.44 0 0 1-.604-.127m-16.672.14a.437.437 0 0 1-.253-.563a48 48 0 0 1 .637-1.587a.437.437 0 1 1 .804.34a47 47 0 0 0-.625 1.557a.436.436 0 0 1-.563.253m12.284-.95a11 11 0 0 1-.91-1.508a.438.438 0 0 1 .351-.635a.44.44 0 0 1 .425.234c.294.57.568 1.025.838 1.391a.437.437 0 1 1-.704.518m6.795-1.532a.434.434 0 0 1-.134-.603q.441-.696.804-1.436a.436.436 0 1 1 .783.387q-.385.782-.85 1.518a.436.436 0 0 1-.603.134m-17.788-.65a.437.437 0 0 1-.207-.58q.369-.777.78-1.532a.437.437 0 0 1 .765.42q-.399.732-.757 1.486a.436.436 0 0 1-.58.207m9.342-.873c-.304-.667-.498-1.097-.706-1.533a.438.438 0 0 1 .37-.624a.44.44 0 0 1 .417.248c.212.443.413.888.713 1.547a.437.437 0 0 1-.794.362m-7.756-2.117a.436.436 0 0 1-.123-.605c.355-.534.712-1.004 1.063-1.396a.436.436 0 1 1 .65.581a12 12 0 0 0-.985 1.297a.437.437 0 0 1-.605.123m6.278-.876c-.324-.536-.637-.944-.956-1.246a.436.436 0 1 1 .6-.634c.377.357.738.824 1.103 1.428a.437.437 0 0 1-.747.452m-4.111-1.712a.435.435 0 0 1 .15-.599c.593-.356 1.213-.527 1.889-.44a.436.436 0 1 1-.112.866c-.48-.063-.91.072-1.329.323a.436.436 0 0 1-.598-.15m15.627 3.22a.436.436 0 0 1-.248-.565c.186-.48.284-.79.285-.793a.437.437 0 0 1 .833.26c-.004.014-.106.34-.305.85a.437.437 0 0 1-.565.248m2.507-3.282l-1-1l1-1a.438.438 0 0 0-.142-.712a.44.44 0 0 0-.475.094l-1 1l-1.001-1a.436.436 0 0 0-.617.617l1 1l-1 1.001a.436.436 0 0 0 .617.617l1-1l1 1a.436.436 0 0 0 .618-.617"/></g></svg>