<svg xmlns="http://www.w3.org/2000/svg" width="24" height="24" viewBox="0 0 24 24"><g fill="none" fill-rule="evenodd"><path d="m12.594 23.258l-.012.002l-.071.035l-.02.004l-.014-.004l-.071-.036q-.016-.004-.024.006l-.004.01l-.017.428l.005.02l.01.013l.104.074l.015.004l.012-.004l.104-.074l.012-.016l.004-.017l-.017-.427q-.004-.016-.016-.018m.264-.113l-.014.002l-.184.093l-.01.01l-.003.011l.018.43l.005.012l.008.008l.201.092q.019.005.029-.008l.004-.014l-.034-.614q-.005-.019-.02-.022m-.715.002a.02.02 0 0 0-.027.006l-.006.014l-.034.614q.001.018.017.024l.015-.002l.201-.093l.01-.008l.003-.011l.018-.43l-.003-.012l-.01-.01z"/><path fill="currentColor" d="M19.495 3.133a1 1 0 0 1 1.352.309l.99 1.51a1 1 0 0 1-.155 1.279l-.003.004l-.014.013l-.057.053l-.225.215a84 84 0 0 0-3.62 3.736c-2.197 2.416-4.806 5.578-6.562 8.646c-.49.856-1.687 1.04-2.397.301l-6.485-6.738a1 1 0 0 1 .051-1.436l1.96-1.768A1 1 0 0 1 5.6 9.2l3.309 2.481c5.169-5.097 8.1-7.053 10.586-8.548m.21 2.216c-2.29 1.432-5.148 3.509-9.998 8.358A1 1 0 0 1 8.4 13.8l-3.342-2.506l-.581.524l5.317 5.526c1.846-3.07 4.387-6.126 6.49-8.438a86 86 0 0 1 3.425-3.552l-.003-.005Z"/></g></svg>