<svg xmlns="http://www.w3.org/2000/svg" width="80" height="80" viewBox="0 0 80 80"><rect width="80" height="80" fill="none"/><g fill="none"><path fill="#56ccf2" fill-rule="evenodd" d="M57.064 21.575a15.58 15.58 0 0 1 7.37 9.446c.59 2.164.698 4.408.342 6.584a12.4 12.4 0 0 1 3.518 2.421l.082.08a12.1 12.1 0 0 1 0 17.27l-.082.08a12.37 12.37 0 0 1-8.667 3.543H56.81l-.03.001H20.373a12.37 12.37 0 0 1-8.667-3.543l-.082-.08a12.1 12.1 0 0 1 0-17.27l.082-.08a12.37 12.37 0 0 1 6.867-3.411q.088-.557.235-1.107a10.76 10.76 0 0 1 5.101-6.572a11.1 11.1 0 0 1 8.349-1.05a11.2 11.2 0 0 1 2.092.792l.786-1.336a16.1 16.1 0 0 1 9.781-7.382a16.1 16.1 0 0 1 12.02 1.541z" clip-rule="evenodd"/><path fill="#2f80ed" d="M43.389 19.777c4.57-1.202 9.461-.59 13.54 1.72l.143.082a17.6 17.6 0 0 1 8.288 10.65a17.3 17.3 0 0 1 .552 5.97a12.4 12.4 0 0 0-6.285-1.716h-.23a12.37 12.37 0 0 0-8.667 3.543l-.082.081a12.1 12.1 0 0 0-2.214 14.303a18.05 18.05 0 0 1-9.309-2.318l-.143-.081a17.6 17.6 0 0 1-4.686-3.862a11.13 11.13 0 0 1-7.65.687a11.1 11.1 0 0 1-6.704-5.085a10.76 10.76 0 0 1-1.134-8.242a10.76 10.76 0 0 1 5.101-6.571a11.1 11.1 0 0 1 8.594-.983c2.38-4.028 6.324-6.978 10.886-8.178"/></g></svg>