<!-- coffee.svg -->
<svg xmlns="http://www.w3.org/2000/svg" viewBox="0 0 64 64" fill="currentColor">
  <title>Coffee Cup</title>
  <path d="M12 20c0-2.2 1.8-4 4-4h36c2.2 0 4 1.8 4 4v6c0 6.6-5.4 12-12 12H28c-6.6 0-12-5.4-12-12v-6zm4 0v6c0 4.4 3.6 8 8 8h16c4.4 0 8-3.6 8-8v-6H16zM8 48h48a2 2 0 110 4H8a2 2 0 110-4zm10-4h28c3.3 0 6-2.7 6-6v-2h-4v2c0 1.1-.9 2-2 2H18c-1.1 0-2-.9-2-2v-2h-4v2c0 3.3 2.7 6 6 6zM24 8c0 2-1 3-1 5s1 3 1 5-2 2-2 0 0-2 0-4 1-3 1-5-2-2-2 0 0 2 0 4-1 3-1 5 2 2 2 0-1-3-1-5 1-3 1-5z"/>
</svg>
