<svg xmlns="http://www.w3.org/2000/svg" width="1em" height="1em" viewBox="0 0 14 14">
	<path d="M0 0h14v14H0z" fill="none" />
	<g fill="none" fill-rule="evenodd" clip-rule="evenodd">
		<path fill="#8fbffa" d="M7.152.394a.5.5 0 0 0-.305 0c-2.132.681-3.732 1.478-5.605 2.702l.274.419l-.274-.419c-.376.247-.62.651-.66 1.098C.394 6.19.384 7.817.58 9.812c.043.444.285.845.659 1.089l.274-.419l-.274.419c1.874 1.226 3.475 2.023 5.608 2.705a.5.5 0 0 0 .305 0c2.133-.682 3.735-1.48 5.61-2.705c.373-.244.615-.645.659-1.09c.194-1.994.184-3.62-.002-5.617a1.48 1.48 0 0 0-.661-1.097C10.885 1.872 9.284 1.075 7.152.394" />
		<path fill="#2859c5" d="m7.625 6.759l5.759-2.775a1.47 1.47 0 0 0-.626-.887C10.885 1.872 9.284 1.075 7.152.394a.5.5 0 0 0-.305 0c-2.132.681-3.732 1.478-5.605 2.702l.274.419l-.274-.419a1.47 1.47 0 0 0-.625.885l5.758 2.777v6.692q.232.079.472.156a.5.5 0 0 0 .305 0l.473-.156z" />
	</g>
</svg>
