<svg xmlns="http://www.w3.org/2000/svg" width="48" height="48" viewBox="0 0 48 48"><rect width="48" height="48" fill="none"/><g fill="none"><path fill="#8fbffa" d="M11.27 2.962c-2.08.558-3.774 1.062-5.117 1.492c-3.178 1.017-4.99 4.155-4.281 7.416c.299 1.378.708 3.096 1.266 5.177a112 112 0 0 0 1.492 5.116c1.016 3.178 4.155 4.99 7.416 4.282c1.378-.3 3.096-.709 5.177-1.267a112 112 0 0 0 5.116-1.491c3.178-1.017 4.99-4.155 4.282-7.416c-.3-1.378-.71-3.097-1.267-5.177a112 112 0 0 0-1.491-5.117C22.846 2.8 19.707.987 16.447 1.696c-1.378.3-3.097.709-5.177 1.266"/><path fill="#8fbffa" fill-rule="evenodd" d="M36.273 46.623c-1.378-.3-3.097-.71-5.177-1.267a112 112 0 0 1-5.117-1.492c-3.178-1.016-4.99-4.155-4.281-7.415c.3-1.378.709-3.097 1.266-5.177c.558-2.08 1.062-3.774 1.492-5.117c1.017-3.178 4.155-4.99 7.416-4.282c1.378.3 3.096.71 5.177 1.267s3.773 1.062 5.116 1.492c3.178 1.016 4.99 4.155 4.282 7.415c-.3 1.379-.71 3.097-1.267 5.178a112 112 0 0 1-1.491 5.116c-1.017 3.178-4.156 4.99-7.416 4.282" clip-rule="evenodd"/><path fill="#2859c5" fill-rule="evenodd" d="M15.08 16.692a2.75 2.75 0 1 0-1.667-5.242a2.75 2.75 0 0 0 1.668 5.242ZM29.379 39.2a2.75 2.75 0 1 0 1.424-5.314a2.75 2.75 0 0 0-1.424 5.314" clip-rule="evenodd"/><path fill="#2859c5" d="M35.395 31.236a2.75 2.75 0 1 1 5.313 1.424a2.75 2.75 0 0 1-5.313-1.424"/></g></svg>