<svg xmlns="http://www.w3.org/2000/svg" width="512" height="512" viewBox="0 0 512 512"><rect width="512" height="512" fill="none"/><path fill="#f73737" d="M413.899 475.795H116.194V23.6c0-11.929 9.671-21.6 21.6-21.6h254.505c11.929 0 21.6 9.671 21.6 21.6z"/><path fill="#c62424" d="M224.291 226.405h-56.172c-11.929 0-21.6-9.671-21.6-21.6V63.682c0-11.929 9.671-21.6 21.6-21.6h56.172c11.929 0 21.6 9.671 21.6 21.6v141.123c0 11.929-9.67 21.6-21.6 21.6m159.283-21.6V63.682c0-11.929-9.671-21.6-21.6-21.6h-56.172c-11.929 0-21.6 9.671-21.6 21.6v141.123c0 11.929 9.671 21.6 21.6 21.6h56.172c11.929 0 21.6-9.671 21.6-21.6M245.891 433.629v-96.407c0-11.929-9.671-21.6-21.6-21.6h-56.172c-11.929 0-21.6 9.671-21.6 21.6v96.407c0 11.929 9.671 21.6 21.6 21.6h56.172c11.93 0 21.6-9.671 21.6-21.6m137.683 0v-96.407c0-11.929-9.671-21.6-21.6-21.6h-56.172c-11.929 0-21.6 9.671-21.6 21.6v96.407c0 11.929 9.671 21.6 21.6 21.6h56.172c11.929 0 21.6-9.671 21.6-21.6"/><circle cx="360.861" cy="270.905" r="26.973" fill="#ffb636"/><path fill="#bfbcaf" d="M403.499 507.27H126.594c-5.744 0-10.4-4.656-10.4-10.4v-21.074h297.705v21.074c0 5.743-4.657 10.4-10.4 10.4"/></svg>