<!-- /assets/icons/emoji.svg -->
<svg xmlns="http://www.w3.org/2000/svg" viewBox="0 0 24 24" fill="currentColor">
  <path d="M12 2C6.48 2 2 6.48 2 12s4.48 10 10 10 
           10-4.48 10-10S17.52 2 12 2zm0 18c-4.41 
           0-8-3.59-8-8s3.59-8 8-8 8 3.59 
           8 8-3.59 8-8 8zm-4-6c.5 1.5 
           2 2.5 4 2.5s3.5-1 4-2.5h-8zm-.5-5c0 
           .83.67 1.5 1.5 1.5S10.5 9.33 
           10.5 8.5 9.83 7 9 7 7.5 7.67 7.5 
           8.5zm7 0c0 .83.67 1.5 1.5 
           1.5S17.5 9.33 17.5 8.5 16.83 7 16 7s-1.5.67-1.5 1.5z"/>
</svg>
