<svg xmlns="http://www.w3.org/2000/svg" width="24" height="24" viewBox="0 0 24 24"><rect width="24" height="24" fill="none"/><g fill="none"><path fill="#020202" d="M17.235 2.202c-.529-.2-1.113-.2-1.642 0a2.24 2.24 0 0 0-1.25 1.221a1.91 1.91 0 0 0 0 1.682a.335.335 0 1 0 .61-.28a1.23 1.23 0 0 1 .14-1.071a1.32 1.32 0 0 1 .84-.621c.303-.061.617-.019.892.12a1.1 1.1 0 0 1 .59.57c.145.295.194.628.14.951a1.17 1.17 0 0 1-.5.761c-.21.15-.61.27-.871.45q-.165.103-.29.25a1.1 1.1 0 0 0-.18.401a2.3 2.3 0 0 0-.05.52a.35.35 0 0 0 .69 0a1.3 1.3 0 0 1 0-.28q.03-.092.09-.17l1.001-.4a2.15 2.15 0 0 0 1.101-1.301a2.65 2.65 0 0 0-.1-1.632a2.16 2.16 0 0 0-1.211-1.17m-1.391 6.025a.87.87 0 0 0-.731.56a.69.69 0 0 0 .61.821a.89.89 0 0 0 .821-.6a.74.74 0 0 0-.7-.781"/><path fill="#0c6fff" d="M5.484 11.841a8.6 8.6 0 0 0-1.542.17a.3.3 0 0 0 0 .6c.641 0 1.051.14 1.842.12a9 9 0 0 0 1.251-.16a.33.33 0 0 0 .32-.35a.33.33 0 0 0-.35-.33c-.36 0-.66-.06-.93-.07s-.41.01-.591.02m-1.732 4.484a.32.32 0 0 0 .29.31c.661.09 1.372.14 2.092.17l1.352.05h1.331c1.061-.06 2.152-.21 3.083-.28a.34.34 0 0 0 .34-.34a.35.35 0 0 0-.35-.34c-.931-.06-2.002-.14-3.093-.16H7.486l-3.413.28a.3.3 0 0 0-.32.31"/><path fill="#0c6fff" d="M15.774 15.585a.35.35 0 0 0-.35.34c0 .76-.05 1.471-.1 2.002a8 8 0 0 1-.111.92a.2.2 0 0 1 0 .08c-.15 0-.48.11-.81.11c-1.272 0-3.344-.14-4.365-.16a3.5 3.5 0 0 0-.63 0a.52.52 0 0 0-.33.17c-.281.311-.581 1.002-1.092 1.833q-.339.54-.78 1a3.5 3.5 0 0 1-1.642.821a5.6 5.6 0 0 0 .38-1.631a3.14 3.14 0 0 0-.23-1.712a1.06 1.06 0 0 0-.54-.51a3.4 3.4 0 0 0-1.001-.14H1.43a2 2 0 0 1-.26-.07q.015-.261 0-.521c-.1-1.872-.24-6.006-.15-7.767c0-.28.14-.55.11-.64a7.5 7.5 0 0 1 1.721-.231c.951-.07 2.092-.1 3.163-.12a.31.31 0 0 0 .3-.3a.3.3 0 0 0-.31-.3H2.281a3.94 3.94 0 0 0-1.782.37a1.17 1.17 0 0 0-.23.61a35 35 0 0 0-.19 3.523v5.235q.003.293.05.58a.65.65 0 0 0 .16.361c.355.239.774.364 1.201.36c1.001.07 3.253 0 3.263.07c.094.61.07 1.232-.07 1.832a3.55 3.55 0 0 1-.66 1.352a.56.56 0 0 0-.13.47a.54.54 0 0 0 .47.46q.235.036.47 0a5.6 5.6 0 0 0 3.113-1.32q.511-.541.891-1.182c.4-.64.63-1.251.84-1.591h.231c.94 0 3.003.07 4.374 0q.607.005 1.201-.12a.57.57 0 0 0 .27-.16c.169-.264.259-.57.26-.882c.07-.64.1-1.661.1-2.802a.34.34 0 0 0-.34-.34"/><path fill="#020202" d="M23.741 1.161a1 1 0 0 0-.24-.56a4.4 4.4 0 0 0-1.892-.43C19.347 0 15.493 0 14.953 0c-1.311 0-3.243.11-4.695.26a6.8 6.8 0 0 0-2.232.48a.7.7 0 0 0-.22.361c0 .1-.05.31-.08.62c-.08 1.032-.14 3.284-.11 5.286q-.015 1.799.22 3.583c.031.229.121.446.26.63c.096.09.213.156.34.19q.612.112 1.232.09c1.341 0 3.433-.15 4.374-.15h.24c.24.33.49.942.911 1.592q.392.617.9 1.141a5 5 0 0 0 2.663 1.191q.343.06.691.05a.39.39 0 0 0 .38-.31a.31.31 0 0 0-.08-.29a3.93 3.93 0 0 1-.79-1.812c-.1-.458-.1-.933 0-1.391c.16-.67.62-.21 3.543-.37a2 2 0 0 0 1.09-.29a.6.6 0 0 0 .12-.281c0-.1 0-.33.051-.64c.08-1.252.16-4.004.16-6.106a26 26 0 0 0-.18-2.673m-.78 8.848q.008.14 0 .28a2.2 2.2 0 0 1-.431.13c-2.803.241-4.484-.68-4.244 2.163c.056.698.25 1.379.57 2.002a4.1 4.1 0 0 1-2.122-1.001a6.4 6.4 0 0 1-.77-1.001c-.49-.801-.761-1.532-1.001-1.852a.57.57 0 0 0-.31-.17a4 4 0 0 0-.631 0c-1.001 0-3.093.07-4.364 0l-.71-.11c0-.23-.191-.791-.221-1.331c-.08-2.002 0-5.315.08-6.927v-.58h.11c.47-.09 1.211-.18 2.002-.25a53 53 0 0 1 3.944-.21c.39 0 2.812-.071 4.924 0q1.286.006 2.563.16q.16.038.31.11q.035.193.05.39c.07.7.1 1.831.12 3.003c.13 1.961.13 4.193.13 5.194"/></g></svg>