<svg xmlns="http://www.w3.org/2000/svg" width="72" height="72" viewBox="0 0 72 72"><rect width="72" height="72" fill="none"/><path fill="#0096d1" d="m26.1 49.8l9.6 21.8c0 .1-.1.1-.1.1L16.9 49.8zm-8.8-20.1H.1c0 .7 1.1 1.6 1.1 1.6l15.7 18.5l6.3-6.7z"/><path fill="#76dfff" d="M71.5 30.5c-.5.5-1.3.5-1.8 0c-.2-.2-.4-.6-.4-.9H54.6l-9.2-10L55 9.5l16.3 19.1s0 .1.1.1h.1c.5.6.5 1.4 0 1.8m-35.6-.8l9.4-10l-9.4-10.2l-9.4 10.2z"/><path fill="#59cafc" d="M36.3 71.7c-.1.1-.2 0-.1-.1l9.6-21.8H55zm12.4-28.6l6.3 6.7l16.4-19.2s.4-.6.4-.9H54.6z"/><path fill="#27c7ff" d="m26.5 19.7l-9.2 10h18.6z"/><path fill="#b0e9ff" d="m45.4 19.7l-9.5 10h18.7z"/><path fill="#00b1ff" d="m26.5 19.7l-9.2 10H.1s.1-.6.5-1l15.8-18.5c.1-.1.2-.2.3-.2c.2-.3.5-.4.9-.4c.7 0 1.2.6 1.2 1.2c0 .2-.1.4-.2.6zm9.4 10l12.8 13.5l5.9-13.5zm-18.6 0l5.9 13.5L36 29.7zm8.8 20.1l9.7 22q.15.15.3 0l9.7-22zm22.6-6.7l-2.9 6.7H55z"/><path fill="#59cafc" d="M45.4 19.7L35.9 9.5H55zM35.9 9.5H18c-.4 0-1.2 0-.9.3l9.4 9.9z"/><path fill="#0074a8" d="m23.2 43.1l-6.3 6.7h9.2z"/><path fill="#0096d1" d="m23.2 43.1l2.9 6.7h19.7l2.9-6.7l-12.8-13.4z"/><path fill="#fff" d="M52.7 29.9c2.7.7 4.8 2.8 5.5 5.5c.1.3.4.3.5 0c.7-2.7 2.8-4.8 5.5-5.5c.3-.1.3-.4 0-.5c-2.7-.7-4.8-2.8-5.5-5.5c-.1-.3-.4-.3-.5 0c-.7 2.7-2.8 4.8-5.5 5.5c-.3.1-.3.4 0 .5"/><path fill="#b0e9ff" d="M42.6 3.6c1.4.4 2.5 1.5 2.9 2.9c0 .1.2.1.2 0c.4-1.4 1.5-2.5 2.9-2.9c.1 0 .1-.2 0-.2c-1.4-.4-2.5-1.5-2.9-2.9c0-.1-.2-.1-.2 0c-.4 1.4-1.5 2.5-2.9 2.9c-.1 0-.1.2 0 .2"/></svg>