<svg xmlns="http://www.w3.org/2000/svg" viewBox="0 0 48 48" width="48px" height="48px">
  <path fill="#FFC107" d="M43.611,20.083h-18.36v7.864h10.977c-1.241,4.297-4.792,7.411-9.283,7.411c-5.512,0-10.034-4.523-10.034-10.035c0-5.513,4.523-10.036,10.035-10.036c2.524,0,4.83,0.948,6.609,2.498l5.935-5.935C34.203,8.236,30.311,6.6,25.989,6.6c-10.699,0-19.404,8.704-19.404,19.405c0,10.7,8.705,19.404,19.404,19.404c9.933,0,18.482-7.146,19.798-16.635c0.223-1.442,0.332-2.935,0.332-4.464C45.119,22.726,44.463,21.226,43.611,20.083z"/>
  <path fill="#FF3D00" d="M6.306,14.691c-0.223,0.268-0.442,0.544-0.652,0.823c-2.654,3.464-4.143,7.693-4.143,12.389c0,4.697,1.489,8.925,4.143,12.389c0.21,0.279,0.429,0.555,0.652,0.823l8.304-8.305c-0.996-1.646-1.575-3.596-1.575-5.735c0-2.139,0.579-4.089,1.575-5.735L6.306,14.691z"/>
  <path fill="#4CAF50" d="M6.306,33.309c2.654,3.464,6.39,5.908,10.647,7.033c1.988,0.5,4.034,0.772,6.036,0.772c5.514,0,10.035-4.523,10.035-10.035c0-0.268-0.005-0.536-0.015-0.803H14.61C11.983,29.705,8.875,31.38,6.306,33.309z"/>
  <path fill="#1976D2" d="M35.605,25.481c0.267,1.355,0.373,2.778,0.373,4.295c0,5.513-4.522,10.036-10.035,10.036c-1.973,0-3.857-0.451-5.558-1.237l8.304-8.305c1.574-1.574,2.839-3.434,3.674-5.632L35.605,25.481z"/>
</svg>
