<svg xmlns="http://www.w3.org/2000/svg" width="24" height="24" viewBox="0 0 24 24"><rect width="24" height="24" fill="none"/><g fill="none"><path fill="#fff" d="m18.37 1.71l-1.96 1.96L5.14 14.94l-.98 3.92l1.96 1.96l3.92-.98L21.31 8.57l1.96-1.96z"/><path fill="#bbd8ff" d="M4.16 18.86L.73 22.29h3.92l1.47-1.47z"/><path fill="#bbd8ff" d="m18.958 6.218l-13.72 13.72l.882.882l3.92-.98L21.31 8.57z"/><path stroke="#092f63" stroke-linecap="round" stroke-linejoin="round" stroke-miterlimit="10" d="M4.16 18.86L.73 22.29h3.92l1.47-1.47zm.98-3.92L16.41 3.67l4.9 4.9l-11.27 11.27l-3.92.98l-1.96-1.96zm5.194 4.704l-4.9-4.9M18.37 11.51l-4.9-4.9m2.94-2.94L14.94 2.2l-4.9 4.9" stroke-width="1"/><path stroke="#092f63" stroke-linecap="round" stroke-linejoin="round" stroke-miterlimit="10" d="m18.37 1.71l-1.96 1.96l4.9 4.9l1.96-1.96z" stroke-width="1"/><path stroke="#bbd8ff" stroke-linecap="round" stroke-linejoin="round" stroke-miterlimit="10" d="M11.02 22.29h12.25" stroke-width="1"/></g></svg>