<svg xmlns="http://www.w3.org/2000/svg" width="16" height="16" viewBox="0 0 16 16"><g fill="none" stroke-linecap="round" stroke-linejoin="round"><path stroke="#eed49f" d="M11.5 6A1.5 1.5 0 0 1 10 7.5A1.5 1.5 0 0 1 8.5 6A1.5 1.5 0 0 1 10 4.5A1.5 1.5 0 0 1 11.5 6" stroke-width="1"/><path stroke="#a6da95" d="M7.5 13.5L11 10c.5-.5 1.5-.5 2 0l1.5 1.5" stroke-width="1"/><path stroke="#a6da95" d="m1.5 9.5l2-2C4 7 5 7 5.5 7.5l4 4" stroke-width="1"/><path stroke="#7dc4e4" d="M3 2.5h10c.83 0 1.5.67 1.5 1.5v8c0 .83-.67 1.5-1.5 1.5H3A1.5 1.5 0 0 1 1.5 12V4c0-.83.67-1.5 1.5-1.5" stroke-width="1"/></g></svg>