<svg xmlns="http://www.w3.org/2000/svg" width="48" height="48" viewBox="0 0 48 48"><rect width="48" height="48" fill="none"/><g fill="none"><path fill="#25b7d3" d="M24 47.998c13.255 0 24-10.745 24-24C48 10.746 37.255 0 24 0S0 10.745 0 23.999s10.745 23.999 24 23.999"/><path fill="#f0f1f1" d="M20.947 34.035a1.309 1.309 0 0 1-.685-2.426l14.008-8.56l-10.151-7.142a1.31 1.31 0 1 1 1.507-2.142l11.781 8.29a1.31 1.31 0 0 1-.07 2.188l-15.71 9.6a1.3 1.3 0 0 1-.68.192"/><path fill="#df2c2c" d="M20.945 34.907a2.181 2.181 0 1 0 0-4.362a2.181 2.181 0 0 0 0 4.362"/><path fill="#f0f1f1" d="M20.946 33.818a1.091 1.091 0 1 0 0-2.183a1.091 1.091 0 0 0 0 2.183"/><path fill="#df2c2c" d="M35.782 25.308a2.182 2.182 0 1 0 0-4.363a2.182 2.182 0 0 0 0 4.363"/><path fill="#f0f1f1" d="M35.782 24.218a1.091 1.091 0 1 0 0-2.183a1.091 1.091 0 0 0 0 2.183"/><path fill="#df2c2c" d="M28.087 37.962a.873.873 0 0 0 .404-1.646a16.3 16.3 0 0 0-7.546-1.844a16.3 16.3 0 0 0-7.546 1.843a.873.873 0 0 0 .404 1.647z"/><path fill="#3e3e3f" d="m26.358 11.657l.617.617c.053.052.094.112.14.17l.787-.788a.655.655 0 0 0-.926-.926l-.787.787c.057.046.117.087.17.14"/><path fill="#bf0302" d="m26.975 12.273l-.617-.617a1.743 1.743 0 0 0-2.468 0l-.868.868a7 7 0 0 1 1.793 1.292c.523.525.96 1.13 1.292 1.793l.868-.868a1.743 1.743 0 0 0 0-2.468"/><path fill="#df2c2c" d="m24.815 13.816l.009.009l1.852-1.851l-.318-.318a1.743 1.743 0 0 0-2.468 0l-.868.868a7 7 0 0 1 1.793 1.292"/><path fill="#df2c2c" d="M25.619 22.725a6.98 6.98 0 0 0-9.713-9.713l-2.584 1.789a15.7 15.7 0 0 0 3.94 6.567a15.7 15.7 0 0 0 6.568 3.94z"/><path fill="#fa5655" d="M24.815 13.816a6.98 6.98 0 0 0-8.91-.804l-2.583 1.789a15.7 15.7 0 0 0 3.94 6.567l.01.009l7.552-7.552z"/><path fill="#facb1b" d="M13.324 14.806a15.7 15.7 0 0 0 3.938 6.562a15.7 15.7 0 0 0 6.563 3.939a16.8 16.8 0 0 0-4.032-6.469a16.8 16.8 0 0 0-6.47-4.032"/><path fill="#fa5655" d="M20.945 34.472a16.3 16.3 0 0 0-7.546 1.843a.873.873 0 0 0 .404 1.647h7.142z"/></g></svg>