<svg xmlns="http://www.w3.org/2000/svg" width="1em" height="1em" viewBox="0 0 48 48">
	<path d="M0 0h48v48H0z" fill="none" />
	<g fill="none">
		<path fill="#32bea6" d="M24 47.996c13.255 0 24-10.745 24-24C48 10.743 37.255-.001 24-.001S0 10.742 0 23.997s10.745 23.999 24 23.999" />
		<path fill="#e2e4e5" d="M30.545 27.052v1.745h2.182v-8.29h-3.49v6.545zm-8.29 1.745V27.05h3.49v1.746h.437V17.015h-4.364v11.782zm-4.8 0v-1.745h1.309v-6.546h-3.491v8.29z" />
		<path fill="#fff" d="M30.545 28.797v-1.745h-3.054v1.745h-1.746v-1.745h-3.49v1.745h-1.31v-1.745h-3.49v1.745h-5.673v9.164h24.436v-9.164z" />
		<path fill="#f0f1f1" d="M16.975 26.178H10.08c.22 2.263 1.266 2.618 1.266 2.618l-1.31 9.164h6.982l-1.309-9.164s1.046-.355 1.266-2.618" />
		<path fill="#fff" d="M37.92 26.178h-6.895c.22 2.263 1.266 2.618 1.266 2.618l-1.31 9.164h6.983l-1.31-9.164s1.046-.355 1.267-2.618" />
		<path fill="#facb1b" d="m31.419 13.525l3.054.872l-3.054.873z" />
		<path fill="#84462d" d="M25.745 35.778a1.745 1.745 0 0 0-3.49 0v2.182h3.49zM24 13.961l.436.382V10.47h-.872v3.872z" />
		<path fill="#df2c2c" d="M20.51 17.016h6.981l-3.49-3.055z" />
		<path fill="#facb1b" d="m24.437 10.47l7.418 1.31l-7.419.872z" />
		<path fill="#84462d" d="m17.018 17.015l.436.499v-3.99h-.872v3.927z" />
		<path fill="#df2c2c" d="M13.527 20.506h6.982l-3.49-3.49z" />
		<path fill="#facb1b" d="m17.455 13.525l3.054.872l-3.054.873z" />
		<path fill="#84462d" d="m30.982 17.015l.436.436v-3.926h-.873v3.926z" />
		<path fill="#df2c2c" d="M27.49 20.506h6.983l-3.491-3.49z" />
		<path fill="#6a6a6b" d="M24.873 19.634a.873.873 0 1 0-1.746 0v.873h1.746z" />
		<path fill="#fff" d="M13.528 37.96V26.178H10.08c.22 2.263 1.266 2.618 1.266 2.618l-1.31 9.164z" />
		<path fill="#f0f1f1" d="M34.473 37.96V26.178h-3.448c.22 2.263 1.266 2.618 1.266 2.618l-1.31 9.164z" />
		<path fill="#c7cbcc" d="M14.618 32.07a.22.22 0 0 0-.218-.219h-.654v-1.527a.218.218 0 0 0-.437 0v1.527h-.654a.218.218 0 0 0 0 .437h.654v1.527a.218.218 0 0 0 .437 0v-1.527h.654c.12 0 .218-.098.218-.219m20.727-.218h-.654v-1.527a.218.218 0 0 0-.437 0v1.527H33.6a.218.218 0 0 0 0 .437h.655v1.527a.218.218 0 0 0 .436 0v-1.527h.654a.218.218 0 0 0 0-.437" />
		<path fill="#6a6a6b" d="M31.855 22.252a.873.873 0 1 0-1.746 0v.873h1.746zm-13.964 0a.873.873 0 1 0-1.745 0v.873h1.745z" />
		<path fill="#fa5655" d="m24 13.961l-3.49 3.054H24zm-6.982 3.054l-3.49 3.49h3.49zm13.963 0l-3.49 3.49h3.49z" />
	</g>
</svg>
