<svg xmlns="http://www.w3.org/2000/svg" width="1em" height="1em" viewBox="0 0 40 40">
	<path d="M0 0h40v40H0z" fill="none" />
	<g fill="none" stroke-miterlimit="10">
		<path fill="#ff52a1" stroke="#231f20" d="M12.37 36.61c1-1.44 1.13-11 1.13-16.61s-.13-15.17-1.13-16.61C11.87 2 9.21 1.8 7 1.8S2.13 2 1.63 3.39C.63 4.83.5 14.42.5 20s.13 15.17 1.13 16.61c.5 1.44 3.16 1.59 5.37 1.59s4.87-.15 5.37-1.59Z" />
		<path fill="#fff" stroke="#231f20" d="M3.44 30.06c.31.3 2.37.34 3.56.34s3.25 0 3.56-.34c.31-.15.34-.95.34-1.61s0-1.46-.34-1.61c-.31-.3-2.36-.34-3.56-.34s-3.25 0-3.56.34c-.31.15-.34.95-.34 1.61s.03 1.46.34 1.61Z" />
		<path stroke="#231f20" stroke-linecap="round" d="M10.9 9.8a39 39 0 0 0-7.8 0m7.8 2.6a37.7 37.7 0 0 0-7.8 0" />
		<path stroke="#fff" stroke-linecap="round" d="M7.11 4.12c3.14.15 2.88.1 3.14 1" />
		<path fill="#ffe236" stroke="#231f20" d="M25.37 36.61c1-1.44 1.13-11 1.13-16.61s-.13-15.17-1.13-16.61C24.87 2 22.21 1.8 20 1.8s-4.87.2-5.37 1.59c-1 1.44-1.13 11-1.13 16.61s.13 15.17 1.13 16.61c.5 1.44 3.16 1.59 5.37 1.59s4.87-.15 5.37-1.59Z" />
		<path fill="#fff" stroke="#231f20" d="M16.44 30.06c.31.3 2.37.34 3.56.34s3.25 0 3.56-.34c.31-.15.34-.95.34-1.61s0-1.46-.34-1.61c-.31-.3-2.36-.34-3.56-.34s-3.25 0-3.56.34c-.31.15-.34.95-.34 1.61s.03 1.46.34 1.61Z" />
		<path stroke="#231f20" stroke-linecap="round" d="M23.9 9.8a39 39 0 0 0-7.8 0m7.8 2.6a37.7 37.7 0 0 0-7.8 0" />
		<path stroke="#fff" stroke-linecap="round" d="M20.11 4.12c3.14.15 2.88.1 3.14 1" />
		<path fill="#ff52a1" stroke="#231f20" d="M38.37 36.61c1-1.44 1.13-11 1.13-16.61s-.13-15.17-1.13-16.61C37.87 2 35.21 1.8 33 1.8s-4.87.2-5.37 1.59c-1 1.44-1.13 11-1.13 16.61s.13 15.17 1.13 16.61c.5 1.44 3.16 1.59 5.37 1.59s4.87-.15 5.37-1.59Z" />
		<path fill="#fff" stroke="#231f20" d="M29.44 30.06c.31.3 2.37.34 3.56.34s3.25 0 3.56-.34c.31-.15.34-.95.34-1.61s0-1.46-.34-1.61c-.31-.3-2.36-.34-3.56-.34s-3.25 0-3.56.34c-.31.15-.34.95-.34 1.61s.03 1.46.34 1.61Z" />
		<path stroke="#231f20" stroke-linecap="round" d="M36.9 9.8a39 39 0 0 0-7.8 0m7.8 2.6a37.7 37.7 0 0 0-7.8 0" />
		<path stroke="#fff" stroke-linecap="round" d="M33.11 4.12c3.14.15 2.88.1 3.14 1" />
	</g>
</svg>
