<svg xmlns="http://www.w3.org/2000/svg" width="24" height="24" viewBox="0 0 24 24"><rect width="24" height="24" fill="none"/><g fill="none"><path fill="#66e1ff" d="M10.625 3.292H4.208a.917.917 0 0 0-.917.916v15.584c0 .506.41.916.917.916h6.417c.506 0 .917-.41.917-.916V4.208a.917.917 0 0 0-.917-.916"/><path stroke="#191919" stroke-linecap="round" stroke-linejoin="round" d="M13.375 5.583V2.375a.917.917 0 0 0-.916-.917H2.375a.917.917 0 0 0-.916.917v19.25a.917.917 0 0 0 .916.917H12.46a.917.917 0 0 0 .916-.917v-3.208M5.125 12h17.417" stroke-width="1"/><path stroke="#191919" stroke-linecap="round" stroke-linejoin="round" d="M9.708 7.417L5.125 12l4.583 4.583" stroke-width="1"/></g></svg>