<svg xmlns="http://www.w3.org/2000/svg" width="14" height="14" viewBox="0 0 14 14"><rect width="14" height="14" fill="none"/><g fill="none" fill-rule="evenodd" clip-rule="evenodd"><path fill="#8fbffa" d="M2.5.351a40.5 40.5 0 0 1 5.74 0c1.136.081 2.072.874 2.264 1.932a2.25 2.25 0 0 0-2.108 2.28H4.754a2.25 2.25 0 1 0 0 4.5h3.642a2.25 2.25 0 0 0 2.145 2.281l-.004.086c-.06 1.199-1.06 2.131-2.296 2.22a40.5 40.5 0 0 1-5.742 0C1.263 13.56.263 12.628.203 11.43A89 89 0 0 1 .095 7c0-1.52.037-3.001.108-4.429C.263 1.372 1.263.439 2.5.351"/><path fill="#2859c5" d="M9.66 4.701a1 1 0 0 1 1.433-1.067c1.107.554 2.178 1.624 2.731 2.731a1 1 0 0 1 0 .895c-.553 1.107-1.624 2.178-2.731 2.731A1 1 0 0 1 9.66 8.924l.195-1.111H4.753a1 1 0 0 1 0-2h5.102z"/></g></svg>