<svg xmlns="http://www.w3.org/2000/svg" width="24" height="24" viewBox="0 0 24 24"><rect width="24" height="24" fill="none"/><g fill="none"><path stroke="#191919" stroke-linecap="round" stroke-linejoin="round" d="M23 1.762V23" stroke-width="1"/><path fill="#ff808c" d="M22.73 1.325a.48.48 0 0 0-.51.058C17.275 5.416 17.013-.635 12 1.452C6.986-.635 6.724 5.416 1.78 1.382a.478.478 0 0 0-.78.383c.038 2.687.734 9.629 6.881 9.629c1.35.012 2.69-.246 3.94-.759a.45.45 0 0 1 .359 0c1.25.513 2.588.77 3.939.759c6.147 0 6.843-6.942 6.88-9.629a.48.48 0 0 0-.269-.44m-12.66 5.36C9.896 7.67 8.474 8.24 6.899 7.96S4.19 6.65 4.366 5.663s1.596-1.55 3.17-1.27c1.574.282 2.709 1.307 2.534 2.293M17.1 7.96c-1.575.28-2.995-.287-3.17-1.273c-.177-.987.956-2.01 2.533-2.296s2.994.287 3.17 1.273s-.958 2.015-2.533 2.296"/><path fill="#ffbfc5" d="M11.769 1.36C6.976-.448 6.644 5.353 1.78 1.383a.478.478 0 0 0-.78.382c.037 2.687.733 9.629 6.88 9.629a10.2 10.2 0 0 0 3.888-.737zm-4.87 6.6C5.325 7.678 4.19 6.652 4.366 5.664s1.596-1.551 3.17-1.27S10.245 5.7 10.07 6.689c-.175.99-1.596 1.552-3.171 1.27"/><path stroke="#191919" stroke-linecap="round" stroke-linejoin="round" d="M22.73 1.325a.48.48 0 0 0-.51.058C17.275 5.416 17.013-.635 12 1.452C6.986-.635 6.724 5.416 1.78 1.382a.478.478 0 0 0-.78.383c.038 2.687.734 9.629 6.881 9.629c1.35.012 2.69-.246 3.94-.759a.45.45 0 0 1 .359 0c1.25.513 2.588.77 3.939.759c6.147 0 6.843-6.942 6.88-9.629a.48.48 0 0 0-.269-.44m-12.66 5.36C9.896 7.67 8.474 8.24 6.899 7.96S4.19 6.65 4.366 5.663s1.596-1.55 3.17-1.27c1.574.282 2.709 1.307 2.534 2.293M17.1 7.96c-1.575.28-2.995-.287-3.17-1.273c-.177-.987.956-2.01 2.533-2.296s2.994.287 3.17 1.273s-.958 2.015-2.533 2.296" stroke-width="1"/></g></svg>