<svg xmlns="http://www.w3.org/2000/svg" width="24" height="24" viewBox="0 0 24 24"><rect width="24" height="24" fill="none"/><g fill="none"><path stroke="#191919" stroke-linecap="round" stroke-linejoin="round" d="M7.958 6.754v7.775a6.46 6.46 0 0 0 3.593 5.79" stroke-width="1"/><path fill="#ff808c" stroke="#191919" stroke-linecap="round" stroke-linejoin="round" d="M20.534 8.64h.45c.743 0 1.347.604 1.347 1.348v.898c0 .744-.603 1.348-1.348 1.348h-.449z" stroke-width="1"/><path fill="#e4f1f5" d="M20.12 3.823a.9.9 0 0 0-.862-.058a28 28 0 0 1-11.3 2.989v7.366a28 28 0 0 1 11.3 2.986a.898.898 0 0 0 1.276-.815V4.58a.9.9 0 0 0-.415-.757"/><path fill="#fff" d="M20.534 10.437V4.58a.898.898 0 0 0-1.276-.815a27.9 27.9 0 0 1-11.3 2.989v3.683z"/><path stroke="#191919" stroke-linecap="round" stroke-linejoin="round" d="M20.12 3.823a.9.9 0 0 0-.862-.058a28 28 0 0 1-11.3 2.989v7.366a28 28 0 0 1 11.3 2.986a.898.898 0 0 0 1.276-.815V4.58a.9.9 0 0 0-.415-.757" stroke-width="1"/><path fill="#ff808c" d="M7.957 6.754a48 48 0 0 1-2.695.09h-.898a2.695 2.695 0 0 0-2.695 2.695v1.796a2.695 2.695 0 0 0 2.695 2.695h.898c.965 0 1.857.037 2.695.09z"/><path fill="#ffbfc5" d="M7.957 10.437V6.754c-.838.053-1.73.084-2.695.09h-.898a2.695 2.695 0 0 0-2.695 2.695v.898z"/><path stroke="#191919" stroke-linecap="round" stroke-linejoin="round" d="M7.957 6.754a48 48 0 0 1-2.695.09h-.898a2.695 2.695 0 0 0-2.695 2.695v1.796a2.695 2.695 0 0 0 2.695 2.695h.898c.965 0 1.857.037 2.695.09z" stroke-width="1"/></g></svg>