<svg xmlns="http://www.w3.org/2000/svg" width="1em" height="1em" viewBox="0 0 24 24"><path fill="currentColor" d="M6.5 16.039q1.31 0 2.547.3t2.453.98V7.508q-1.083-.773-2.386-1.16q-1.305-.386-2.614-.386q-.996 0-1.903.165T3 6.681v9.996q.702-.3 1.651-.47T6.5 16.04m6 1.28q1.216-.678 2.453-.98t2.547-.3q.9 0 1.849.169t1.651.469V6.681q-.69-.389-1.597-.554T17.5 5.962q-1.31 0-2.613.386q-1.304.387-2.387 1.16zm-.5 1.45q-1.22-.834-2.62-1.282T6.5 17.04q-1.229 0-2.42.345q-1.19.347-2.08.916V6.07q.85-.52 2.04-.814Q5.229 4.96 6.5 4.96q1.47 0 2.866.423q1.398.424 2.634 1.231q1.237-.807 2.634-1.23t2.866-.423q1.271 0 2.451.294T22 6.069V18.3q-.885-.57-2.078-.915q-1.193-.347-2.422-.347q-1.48 0-2.88.448T12 18.77m1.885-9.177v-.93q.805-.408 1.725-.612t1.89-.204q.554 0 1.064.071q.509.072 1.052.202v.908q-.524-.167-1.02-.232q-.498-.064-1.096-.064q-.97 0-1.892.218q-.924.218-1.724.643m0 5.462v-.97q.768-.407 1.717-.611t1.899-.204q.554 0 1.064.072q.509.07 1.052.201v.908q-.524-.167-1.02-.232q-.498-.064-1.096-.064q-.97 0-1.892.235q-.924.234-1.724.665m0-2.712v-.969q.806-.408 1.726-.611t1.89-.204q.554 0 1.063.07q.51.072 1.052.203v.908q-.523-.168-1.02-.232q-.497-.065-1.095-.065q-.97 0-1.892.238q-.924.237-1.724.662"/></svg>