<svg xmlns="http://www.w3.org/2000/svg" width="1em" height="1em" viewBox="0 0 48 48">
	<path d="M0 0h48v48H0z" fill="none" />
	<g fill="none">
		<path fill="#fabc3d" d="M24 47.998c13.255 0 24-10.745 24-24C48 10.746 37.255 0 24 0S0 10.745 0 23.999s10.745 23.999 24 23.999" />
		<path fill="#3e3e3f" d="M10.036 10.909v26.18h27.927V10.91zm3.491 24.435h-1.745v-1.746h1.745zm0-3.49h-1.745v-1.746h1.745zm0-3.492h-1.745v-1.745h1.745zm0-3.49h-1.745v-1.746h1.745zm0-3.491h-1.745v-1.745h1.745zm0-3.49h-1.745v-1.746h1.745zm0-3.492h-1.745v-1.745h1.745zm22.691 20.945h-1.746v-1.746h1.746zm0-3.49h-1.746v-1.746h1.746zm0-3.492h-1.746v-1.745h1.746zm0-3.49h-1.746v-1.746h1.746zm0-3.491h-1.746v-1.745h1.746zm0-3.49h-1.746v-1.746h1.746zm0-3.492h-1.746v-1.745h1.746z" />
		<path fill="#5b5c5f" d="M32.727 32.29H15.273v4.799h17.454zm0-21.381H15.273v4.8h17.454zm0 7.418H15.273v11.345h17.454z" />
		<path fill="#818284" d="m15.273 24.687l6.36-6.36h-6.36zm0-13.778v4.8h8.979l4.8-4.8z" />
	</g>
</svg>
