<svg xmlns="http://www.w3.org/2000/svg" width="1em" height="1em" viewBox="0 0 512 512"><path fill="#e5aa6e" d="M256.295 9.217C120.001 9.217 9.512 119.706 9.512 256c0 43.532 11.693 84.2 31.055 119.939c24.744 45.676 120.236-129.338 171.165-91.196S90.776 447.079 138.533 472.527c35.252 18.784 75.036 30.256 117.762 30.256c136.294 0 246.783-110.488 246.783-246.783S392.59 9.217 256.295 9.217"/><path fill="#fff" d="M274.829 451.585c-24.167 0-43.758-17.564-43.758-39.23s19.591-39.23 43.758-39.23s43.758 17.564 43.758 39.23s-19.591 39.23-43.758 39.23"/><path fill="#ffd469" d="M435.954 299.272c12.708 19.521 5.991 46.425-15.003 60.092s-48.315 8.922-61.023-10.599s-5.991-46.425 15.004-60.092c20.993-13.668 48.314-8.922 61.022 10.599"/><path fill="#0074a8" d="M443.193 159.103c1.598 23.238-17.366 43.469-42.358 45.188s-46.547-15.726-48.145-38.964s17.366-43.469 42.358-45.188s46.547 15.726 48.145 38.964"/><path fill="#ff473e" d="M287.822 100.348c1.598 23.238-21.619 43.762-51.857 45.841s-56.046-15.073-57.644-38.311s21.619-43.762 51.857-45.841s56.046 15.073 57.644 38.311"/><path fill="#009b51" d="M155.826 201.296c1.598 23.238-17.366 43.469-42.358 45.188s-46.547-15.726-48.145-38.964s17.366-43.469 42.358-45.188s46.547 15.726 48.145 38.964"/></svg>