<svg xmlns="http://www.w3.org/2000/svg" width="80" height="80" viewBox="0 0 80 80"><rect width="80" height="80" fill="none"/><g fill="none"><path stroke="#2f80ed" stroke-linecap="round" stroke-linejoin="round" stroke-width="4" d="m24 72l26.692-11.941c4.732-2.117 5.09-8.698.617-11.317v0c-4.296-2.515-4.18-8.762.206-11.116L62 32"/><path fill="#eb5757" fill-rule="evenodd" d="M30.45 35.336a14.76 14.76 0 0 0-20.847 10.02l-.051.226a15.24 15.24 0 0 0 2.659 12.491l1.356 1.816q.936 1.25 2.065 2.328l8.035 7.668c.186.178.48.178.666 0l8.035-7.668a18.7 18.7 0 0 0 2.065-2.328l1.357-1.816a15.25 15.25 0 0 0 2.658-12.491l-.051-.227a14.76 14.76 0 0 0-7.947-10.02m-3.6 6.205a6.55 6.55 0 0 0-5.702 0A6.58 6.58 0 0 0 17.612 46a6.63 6.63 0 0 0 1.264 5.572A6.55 6.55 0 0 0 24 54.052a6.55 6.55 0 0 0 5.124-2.48a6.63 6.63 0 0 0 1.264-5.571a6.58 6.58 0 0 0-3.537-4.46" clip-rule="evenodd"/><path fill="#eb5757" d="m17.55 35.336l-.873-1.8zm12.9 0l.874-1.8zM9.603 45.356l1.951.44zm-.051.226l-1.95-.441zm2.659 12.491l1.601-1.197zm1.356 1.816l-1.601 1.197zm2.065 2.328l-1.381 1.447zm8.035 7.668l-1.381 1.447zm.666 0l1.381 1.447zm8.035-7.668l1.381 1.447zm2.065-2.328L32.83 58.69zm1.357-1.816l-1.602-1.197zm2.658-12.491l-1.95.441zm-.051-.227l1.95-.441zM21.149 41.54l-.872-1.8zm5.702 0l.872-1.8zM17.612 46l-1.95-.442zm1.264 5.572l1.567-1.243zm10.248 0l1.566 1.243zm1.264-5.571l-1.95.443zm-11.964-8.866a12.76 12.76 0 0 1 11.152 0l1.747-3.598a16.76 16.76 0 0 0-14.646 0zm-6.87 8.662a12.76 12.76 0 0 1 6.87-8.662l-1.747-3.598a16.76 16.76 0 0 0-9.024 11.377zm-.051.226l.051-.227l-3.901-.882l-.052.227zm2.31 10.853a13.24 13.24 0 0 1-2.31-10.853L7.6 45.14a17.24 17.24 0 0 0 3.008 14.13zm1.356 1.815l-1.357-1.815l-3.203 2.395l1.357 1.815zm1.843 2.079a16.7 16.7 0 0 1-1.843-2.079l-3.203 2.395a20.7 20.7 0 0 0 2.285 2.578zm8.035 7.668l-8.035-7.668l-2.761 2.894l8.035 7.668zm-2.094 0a1.517 1.517 0 0 1 2.094 0l-2.761 2.894c.96.915 2.469.915 3.428 0zm8.035-7.668l-8.035 7.668l2.761 2.894l8.035-7.668zm1.843-2.079a16.7 16.7 0 0 1-1.843 2.079l2.761 2.894a20.7 20.7 0 0 0 2.285-2.578zm1.357-1.815L32.83 58.69l3.203 2.395l1.358-1.815zm2.31-10.853a13.24 13.24 0 0 1-2.31 10.853l3.203 2.395A17.24 17.24 0 0 0 40.4 45.14zm-.052-.227l.051.227l3.902-.883l-.052-.226zm-6.87-8.661a12.76 12.76 0 0 1 6.87 8.662l3.901-.883a16.76 16.76 0 0 0-9.024-11.377zM22.02 43.34a4.55 4.55 0 0 1 3.96 0l1.742-3.6a8.55 8.55 0 0 0-7.445 0zm-2.457 3.104a4.58 4.58 0 0 1 2.457-3.104l-1.743-3.6a8.58 8.58 0 0 0-4.615 5.818zm.88 3.885a4.63 4.63 0 0 1-.88-3.885l-3.901-.886a8.63 8.63 0 0 0 1.648 7.258zM24 52.052a4.55 4.55 0 0 1-3.557-1.723l-3.133 2.486A8.55 8.55 0 0 0 24 56.053zm3.557-1.723A4.55 4.55 0 0 1 24 52.052v4c2.607 0 5.074-1.2 6.69-3.236zm.88-3.885a4.64 4.64 0 0 1-.88 3.885l3.133 2.486a8.63 8.63 0 0 0 1.648-7.257zM25.98 43.34c1.239.6 2.15 1.75 2.457 3.104l3.901-.886a8.58 8.58 0 0 0-4.616-5.818z"/><path fill="#eb5757" fill-rule="evenodd" d="M63.015 9.991a9.206 9.206 0 0 0-13.04 6.253l-.05.222a9.68 9.68 0 0 0 1.664 7.872l.805 1.088q.628.85 1.388 1.583l4.968 4.79a.3.3 0 0 0 .416 0l4.968-4.79a13 13 0 0 0 1.388-1.582l.806-1.09a9.68 9.68 0 0 0 1.664-7.871l-.05-.222a9.2 9.2 0 0 0-4.927-6.253m-2.263 3.912a4.083 4.083 0 0 0-5.777 2.772l-.017.074a4.14 4.14 0 0 0 .784 3.467l.026.033a4.056 4.056 0 0 0 6.38 0l.026-.033a4.14 4.14 0 0 0 .784-3.467l-.016-.074a4.08 4.08 0 0 0-2.19-2.772" clip-rule="evenodd"/><path fill="#eb5757" d="m54.901 9.991l-.881-1.795zm8.114 0l.881-1.795zm-13.04 6.253l1.95.437zm-.05.222l-1.952-.437zm1.664 7.872l-1.608 1.19zm.805 1.088l1.608-1.189zm1.388 1.583l1.388-1.44zm4.968 4.79l-1.389 1.44zm.416 0l1.389 1.44zm4.968-4.79l1.388 1.44zm1.388-1.582l1.608 1.189zm.806-1.09l-1.608-1.189zm1.664-7.871l1.951-.437zm-.05-.222l-1.952.437zm-10.777-2.341l.878 1.797zm3.587 0l-.879 1.797zm-5.777 2.772l1.95.439zm-.017.074l-1.951-.439zm.784 3.467l1.573-1.236zm.026.033l-1.573 1.235zm6.38 0l-1.572-1.236zm.026-.033l1.573 1.235zm.784-3.467l1.951-.439zm-.016-.074l-1.952.439zm-7.16-4.888a7.2 7.2 0 0 1 6.352 0l1.762-3.591a11.2 11.2 0 0 0-9.876 0zm-3.856 4.894a7.2 7.2 0 0 1 3.857-4.894L54.02 8.196a11.2 11.2 0 0 0-5.998 7.611zm-.05.222l.05-.222l-3.904-.874l-.05.222zm1.32 6.245a7.68 7.68 0 0 1-1.32-6.245l-3.903-.874a11.68 11.68 0 0 0 2.008 9.498zm.806 1.09l-.806-1.09l-3.215 2.38l.805 1.088zm1.168 1.33a10.7 10.7 0 0 1-1.168-1.33l-3.216 2.378a14.7 14.7 0 0 0 1.608 1.832zm4.968 4.791l-4.968-4.79l-2.776 2.88l4.967 4.79zm-2.36 0a1.7 1.7 0 0 1 2.36 0l-2.776 2.88a2.3 2.3 0 0 0 3.193 0zm4.968-4.79l-4.968 4.79l2.777 2.88l4.967-4.79zm1.168-1.332q-.528.715-1.168 1.332l2.776 2.88a14.7 14.7 0 0 0 1.608-1.833zm.806-1.089l-.806 1.09l3.216 2.378l.806-1.089zm1.32-6.245a7.68 7.68 0 0 1-1.32 6.245l3.216 2.38a11.68 11.68 0 0 0 2.007-9.5zm-.05-.222l.05.222l3.903-.874l-.05-.222zm-3.856-4.894a7.2 7.2 0 0 1 3.856 4.894l3.904-.874a11.2 11.2 0 0 0-5.998-7.611zm-4.09 3.913a2.08 2.08 0 0 1 1.83 0l1.756-3.594a6.08 6.08 0 0 0-5.344 0zm-1.118 1.414a2.08 2.08 0 0 1 1.117-1.414l-1.757-3.594a6.08 6.08 0 0 0-3.263 4.13zm-.017.073l.017-.073l-3.903-.877l-.016.073zm.406 1.793a2.14 2.14 0 0 1-.405-1.793l-3.903-.877a6.14 6.14 0 0 0 1.162 5.141zm.026.033l-.026-.033l-3.146 2.471l.026.033zm1.617.787c-.631 0-1.227-.29-1.617-.787l-3.146 2.471a6.06 6.06 0 0 0 4.763 2.316zm1.618-.787c-.39.497-.987.787-1.618.787v4a6.06 6.06 0 0 0 4.763-2.316zm.025-.033l-.025.033l3.145 2.471l.026-.033zm.406-1.793a2.14 2.14 0 0 1-.406 1.793l3.146 2.471a6.14 6.14 0 0 0 1.162-5.141zm-.017-.073l.017.073l3.902-.877l-.016-.073zM59.873 15.7c.568.277.979.797 1.117 1.414l3.903-.877a6.08 6.08 0 0 0-3.263-4.13z"/></g></svg>