<svg xmlns="http://www.w3.org/2000/svg" width="24" height="24" viewBox="0 0 24 24"><rect width="24" height="24" fill="none"/><g fill="none"><path fill="url(#SVGYQlaCcrW)" d="M7.8 16.2h4.8V21H7.8z"/><path fill="url(#SVGAItScecz)" d="M12.6 3h1.878C18.078 3 21 5.922 21 9.528c0 3.6-2.922 6.672-6.528 6.672H7.8v-9h4.8v4.2h1.878c1.182 0 2.322-.918 2.322-2.1s-1.14-2.1-2.328-2.1H12.6z"/><path fill="url(#SVG2B9hGcqF)" d="M3 11.401h4.8v4.8H3z"/><path fill="url(#SVGsslLxdaF)" d="M7.8 11.401h4.8v4.8H7.8z"/><defs><linearGradient id="SVGYQlaCcrW" x1="3" x2="21" y1="8.4" y2="15.983" gradientUnits="userSpaceOnUse"><stop stop-color="#3eff6e"/><stop offset="1" stop-color="#16ddde"/></linearGradient><linearGradient id="SVGAItScecz" x1="3.205" x2="22.547" y1="7.868" y2="16.606" gradientUnits="userSpaceOnUse"><stop stop-color="#ff5b3c"/><stop offset="1" stop-color="#ff3196"/></linearGradient><linearGradient id="SVG2B9hGcqF" x1="3" x2="21" y1="8.401" y2="15.984" gradientUnits="userSpaceOnUse"><stop stop-color="#ff6f3f"/><stop offset="1" stop-color="#ffc546"/></linearGradient><linearGradient id="SVGsslLxdaF" x1="7.8" x2="12.6" y1="12.841" y2="14.863" gradientUnits="userSpaceOnUse"><stop stop-color="#e059fe"/><stop offset="1" stop-color="#656fff"/></linearGradient></defs></g></svg>