<svg xmlns="http://www.w3.org/2000/svg" width="48" height="48" viewBox="0 0 48 48"><rect width="48" height="48" fill="none"/><path fill="#45413c" d="M12.5 45.5a11.5 1.5 0 1 0 23 0a11.5 1.5 0 1 0-23 0" opacity="0.15"/><path fill="#ffe500" d="M40.63 11.39a37.49 37.49 0 0 0-33.26 0L9.63 16a18 18 0 0 1 1.87 8v4.44a2.07 2.07 0 0 0 1.66 2.08a2 2 0 0 0 2.34-2v-.68l7.61 15.36a1 1 0 0 0 1.78 0l2.61-5.27V40a1.5 1.5 0 0 0 3 0v-5.8a9.9 9.9 0 0 1 1-4.43c1.26-2.56 2.61-5.27 4-8v2.73a1.5 1.5 0 0 0 3 0V18a10.05 10.05 0 0 1 1-4.44Z"/><path fill="#ebcb00" d="M24 10.75a37.3 37.3 0 0 1 15.35 3.3c.06-.15.12-.31.19-.45l1.09-2.21a37.49 37.49 0 0 0-33.26 0L8.68 14A37.3 37.3 0 0 1 24 10.75"/><path fill="#ff6242" stroke="#45413c" stroke-linecap="round" stroke-linejoin="round" d="M30.5 22.5a4.5 4.5 0 0 0 0 9h.19c1.11-2.23 2.29-4.62 3.49-7.06a4.47 4.47 0 0 0-3.68-1.94m-7 10.5a4.49 4.49 0 0 0-4.5-4.5a4.44 4.44 0 0 0-2.71.93l3.91 7.89A4.49 4.49 0 0 0 23.5 33M26 14.5a4.5 4.5 0 1 0 9 0a4.5 4.5 0 1 0-9 0" stroke-width="1"/><path fill="#f0d5a8" d="M24 7.5a37.3 37.3 0 0 1 16.63 3.89s2.47.31 2.87-1.89c1-5.5-15.33-7-19.5-7S3.5 4 4.5 9.5c.4 2.2 2.87 1.89 2.87 1.89A37.3 37.3 0 0 1 24 7.5"/><path fill="#f7e5c6" d="M4.54 9.66C8.18 6.07 20.4 5 24 5s15.82 1.07 19.46 4.66V9.5c1-5.5-15.33-7-19.5-7S3.5 4 4.5 9.5c.01.06.03.1.04.16"/><path fill="none" stroke="#45413c" stroke-linecap="round" stroke-linejoin="round" d="M24 7.5a37.3 37.3 0 0 1 16.63 3.89s2.47.31 2.87-1.89c1-5.5-15.33-7-19.5-7S3.5 4 4.5 9.5c.4 2.2 2.87 1.89 2.87 1.89A37.3 37.3 0 0 1 24 7.5" stroke-width="1"/><path fill="#ff6242" stroke="#45413c" stroke-linecap="round" stroke-linejoin="round" d="M12.5 17a4.5 4.5 0 1 0 9 0a4.5 4.5 0 1 0-9 0" stroke-width="1"/><path fill="none" stroke="#45413c" stroke-linecap="round" stroke-linejoin="round" d="M15.5 27.82V25.5m25.13-14.11a37.49 37.49 0 0 0-33.26 0L9.63 16a18 18 0 0 1 1.87 8v4.44a2.07 2.07 0 0 0 1.66 2.08a2 2 0 0 0 2.34-2v-.68l7.61 15.36a1 1 0 0 0 1.78 0l2.61-5.27V40a1.5 1.5 0 0 0 3 0v-5.8a9.9 9.9 0 0 1 1-4.43c1.26-2.56 2.61-5.27 4-8v2.73a1.5 1.5 0 0 0 3 0V18a10.05 10.05 0 0 1 1-4.44ZM27.5 35.5v2.43m8-17.93v1.76" stroke-width="1"/></svg>