<svg xmlns="http://www.w3.org/2000/svg" width="24" height="24" viewBox="0 0 24 24"><rect width="24" height="24" fill="none"/><g fill="none"><path fill="#ffef5e" d="M12 6.74A2.87 2.87 0 1 0 12 1a2.87 2.87 0 0 0 0 5.74"/><path fill="#fff9bf" d="M9.13 3.87c.001.27.04.54.116.8A2.87 2.87 0 0 0 13.8 1.634A2.87 2.87 0 0 0 9.13 3.87"/><path fill="#ffbc44" d="m9.02 11.285l-2.431 1.14a1.598 1.598 0 0 0-.67 2.402l4.169 6.24h3.826l4.168-6.24a1.6 1.6 0 0 0-.67-2.402l-2.614-1.227z"/><path fill="#ffef5e" d="M15.61 9.569a.477.477 0 0 0-.64-.554a7.94 7.94 0 0 1-5.943-.008a.478.478 0 0 0-.638.554l2.655 11.505h1.913z"/><path fill="#fff9bf" d="M12 9.588a8.3 8.3 0 0 1-2.973-.581a.478.478 0 0 0-.638.554l2.655 11.505H12z"/><path stroke="#191919" stroke-linecap="round" stroke-linejoin="round" d="M17.467 22.629a4.26 4.26 0 0 0-3.045-1.542H9.639a4.4 4.4 0 0 0-3.076 1.519L6.262 23H17.74zM15.61 9.569a.477.477 0 0 0-.64-.554a7.94 7.94 0 0 1-5.943-.008a.478.478 0 0 0-.638.554l2.655 11.505h1.913zM12 6.74A2.87 2.87 0 1 0 12 1a2.87 2.87 0 0 0 0 5.74m4.528 5.27l.884.415a1.598 1.598 0 0 1 .67 2.403l-4.169 6.24m-6.44-9.058l-.884.415a1.598 1.598 0 0 0-.67 2.403l4.169 6.24" stroke-width="1"/></g></svg>