<svg xmlns="http://www.w3.org/2000/svg" width="1em" height="1em" viewBox="0 0 48 48">
	<path d="M0 0h48v48H0z" fill="none" />
	<g fill="none" fill-rule="evenodd" clip-rule="evenodd">
		<path fill="#8fbffa" d="M7.003 39.081c2.829.213 7.094.419 12.997.419q.562 0 1.104-.002c-3.02-2.643-2.653-7.709 1.1-9.762l3.07-1.679a7 7 0 0 0 2.783-2.782l1.679-3.07c2.053-3.754 7.12-4.121 9.762-1.101L39.5 20c0-5.903-.206-10.168-.419-12.997c-.247-3.297-2.787-5.837-6.084-6.084C30.168.706 25.903.5 20 .5S9.832.706 7.003.919C3.706 1.166 1.166 3.706.919 7.003C.706 9.832.5 14.097.5 20s.206 10.168.419 12.997c.247 3.297 2.787 5.837 6.084 6.084" />
		<path fill="#2859c5" d="M12.643 15.715a7.357 7.357 0 1 1 12.052 5.664a11.04 11.04 0 0 1 3.871 2.964l-.509.931a7 7 0 0 1-2.782 2.783l-3.07 1.679a6 6 0 0 0-2.124 1.933a137 137 0 0 1-8.194-.24c-.975-.057-1.712-.609-2.12-1.346a3.05 3.05 0 0 1-.192-2.48c.978-2.753 3.063-4.996 5.73-6.223a7.34 7.34 0 0 1-2.662-5.665m24.55 8.169c-.948-1.733-3.438-1.733-4.386 0l-1.68 3.07a10.5 10.5 0 0 1-4.173 4.174l-3.07 1.679c-1.733.948-1.733 3.438 0 4.386l3.07 1.68a10.5 10.5 0 0 1 4.174 4.173l1.679 3.07c.948 1.733 3.438 1.733 4.386 0l1.68-3.07a10.5 10.5 0 0 1 4.173-4.174l3.07-1.679c1.733-.948 1.733-3.438 0-4.386l-3.07-1.68a10.5 10.5 0 0 1-4.174-4.173z" />
	</g>
</svg>
