<svg xmlns="http://www.w3.org/2000/svg" width="48" height="48" viewBox="0 0 48 48"><rect width="48" height="48" fill="none"/><g fill="none" stroke="currentColor" stroke-linecap="round" stroke-linejoin="round" stroke-width="1"><path d="M7.572 42.212c1.432-2.467 3.43-3.752 5.907-4.58m.397.421c1 1.024 2.56 1.066 3.244.806c-.461-1.086-1.904-1.563-3.244-.806m3.742-3.797c-2.296.727-2.624 1.816-2.937 3.038c1.064-.352 3.05-.665 2.937-3.038m-.639 3.135c2.94-1.609 4.558-.783 5.658.025c-1.133.524-4.481 2.423-5.658-.025m1.116-.809c-.174-3.997 3.696-4.816 5.335-5.24c-.266 2.566-2.461 4.524-5.335 5.24m11.148-3.421c-1.519 1.795-2.996 3.596-7.724 3.052c2.336-3.008 4.446-3.674 7.724-3.052m-.026-5.624c-3.046 1.574-5.627 2.713-5.473 5.752c5.504-2.119 5.054-3.709 5.473-5.752"/><path d="M36.407 27.135c-3.545.87-6.807 2.088-8.774 4.962c3.6.349 6.537-1.268 8.774-4.962"/><path d="M30.83 29.017c-1.199-2.459.25-5.505 1.962-7.8c.718 2.21 1.1 4.948-1.962 7.8m8.711-11.364c-2.523 2.62-4.73 5.535-5.91 9.402c2.93-.655 6.265-3.357 5.91-9.402m-5.415-2.6c-1.622 4.069-.328 5.947.538 7.843c1.283-2.386 1.777-4.48-.538-7.843m6.214-5.2c-3.469 3.56-4.008 6.438-3.57 8.92c2.069-2.023 4.163-4.054 3.57-8.92"/></g><path fill="none" stroke="currentColor" stroke-linecap="round" stroke-linejoin="round" d="M16.027 13.166c1.55-1.34 4.562-2.175 7.84-2.175s6.291.837 7.84 2.177M23.897 5.5v5.49m-8.081-4.104l3.271 4.758M31.89 6.886l-3.267 4.752M14.96 10.497l2.117 1.969m3.556-3.916l.801 2.6m11.324-.664l-2.12 1.97m-3.565-3.911l-.8 2.602" stroke-width="1"/><g fill="none" stroke="currentColor" stroke-linecap="round" stroke-linejoin="round" stroke-width="1"><path d="M31.36 35.605c-.939-.391-2.187-.953-3.078-1.358m-9.153-.811c-.749-.53-1.399-1.131-2.049-1.674c-7.899-6.593-8.526-14.008-9.522-21.417l6.328 5.034c.095 2.896.964 5.814 2.346 8.55c1.775 3.512 4.267 5.717 6.883 7.495m6.105 6.526c-1.489-.44-3.61-1.093-5.005-1.7"/><path d="M32.45 34.976c.245-3.078 1.722.895 1.665 1.701c1.487.505 3.365 1.125 4.62 2.381c2.503 2.507.74 3.309.136 3.383c-1.9.233-2.504-.227-2.783-1.334c-.317-1.26-1.308-1.787-3.353-2.161c-1.684 1.127-5.918 2.299-2.95.144"/></g></svg>