<svg xmlns="http://www.w3.org/2000/svg" width="1em" height="1em" viewBox="0 0 32 32">
  <g fill="none" stroke="#000" stroke-width="1.5">
    <!-- Outer frame -->
    <path fill="#fff" d="M22.05 30H9.95C6.66 30 4 27.34 4 24.05V12.03C4 8.7 6.7 6 10.03 6h11.95C25.3 6 28 8.7 28 12.03v12.03c0 3.28-2.66 5.94-5.95 5.94z"/>

    <!-- Decorative top elements -->
    <path fill="#000" d="M11 4.5A1.5 1.5 0 0 1 12.5 3h7a1.5 1.5 0 0 1 .43 2.938c-.277.082-.57.104-.847.186l-3.053.904l-3.12-.908c-.272-.08-.56-.1-.832-.18A1.5 1.5 0 0 1 11 4.5z"/>

    <!-- Side “flag” shapes -->
    <path fill="#000" d="M5 3.5a1.5 1.5 0 0 1-1 1.415V12l2.16 5.487L4 23c-1.1 0-2-.9-2-1.998v-7.004a2 2 0 0 1 1-1.728V4.915A1.5 1.5 0 1 1 5 3.5z"/>
    <path fill="#000" d="M30.05 3.55c0 .681-.44 1.26-1.05 1.468V12.2c.597.347 1 .994 1 1.73v7.01c0 1.1-.9 2-2 2l-2.94-5.68L28 11.93V5.018A1.55 1.55 0 1 1 30.05 3.55z"/>

    <!-- Main display area -->
    <rect x="7.5" y="10" width="17" height="9" rx="4.5" fill="#000"/>
    <rect x="10" y="12" width="2.5" height="5" rx="1.25" fill="#fff"/>
    <rect x="19.5" y="12" width="2.5" height="5" rx="1.25" fill="#fff"/>

    <!-- Bottom button -->
    <rect x="12" y="23" width="8" height="3" rx="1.5" fill="#000" stroke="#fff" stroke-width="1"/>
  </g>
</svg>
