<svg xmlns="http://www.w3.org/2000/svg" width="24" height="24" viewBox="0 0 24 24"><rect width="24" height="24" fill="none"/><g fill="none"><path fill="#0c6fff" d="M22.615 5.296a2.86 2.86 0 0 0 .84-2.29c-.26-2.67-4.451-2-7.011 2.63a.3.3 0 0 0 .1.41a.31.31 0 0 0 .46-.11c.8-1.27 2.52-3.14 4-3.43a1.6 1.6 0 0 1 1.22.06c.44.33.2 1.25-.12 1.71l-.75.73c-.07.12-.64.53-.3 1s1 0 1.61.7c1.09 1.21-1.77 1.89-1.69 2.7c0 .36.43.42.85.51c1.72.321-.62 3.151-3.3 3.481a.35.35 0 0 0-.3.37c.08.72 2.06-.1 2.65-.41a5.8 5.8 0 0 0 1.91-1.47a1.85 1.85 0 0 0-.11-2.68c2.03-1.36 1.5-3.3-.06-3.91m-17.132 7.79a6 6 0 0 1-2-.72c-.68-.38-1.671-1.14-1.841-1.92c-.28-1.36 1.21-.35 1.36-1.35a.65.65 0 0 0-.28-.57c-.18-.13-.66-.41-.69-.43a3 3 0 0 1-.7-.6a.88.88 0 0 1 .55-1.49c.22 0 .77 0 1.12-.32c.63-.791-1.24-1.071-1.37-2.681a.79.79 0 0 1 .23-.74a.84.84 0 0 1 .49-.15a4 4 0 0 1 2.53 1.07c.847.71 1.582 1.542 2.18 2.47a.29.29 0 0 0 .4.1a.3.3 0 0 0 .11-.41a11.6 11.6 0 0 0-2.18-2.75a5.5 5.5 0 0 0-2.11-1.27a3.9 3.9 0 0 0-1.13-.16a1.77 1.77 0 0 0-.88.29a1.7 1.7 0 0 0-.71 1.29a2.83 2.83 0 0 0 .84 2.26a2.3 2.3 0 0 0-.9.63a1.9 1.9 0 0 0-.5 1.2c-.011.42.115.83.36 1.17c.273.361.613.666 1 .9a1.44 1.44 0 0 0-.52.66a1.7 1.7 0 0 0-.07.901c.067.407.239.79.5 1.11a6.1 6.1 0 0 0 1.86 1.43a6.9 6.9 0 0 0 2.28.71a.34.34 0 0 0 .37-.3a.33.33 0 0 0-.3-.33m2.911 4.291a.3.3 0 0 0-.31.28c-.12.56-.27 1.1-.37 1.66a6 6 0 0 0-.1.72c0 .24 0 .48-.05.72v1.7a.34.34 0 0 0 .67.11c.15-.57.31-1.11.43-1.68c.05-.24.09-.48.12-.73a6 6 0 0 0 0-.73c0-.59-.07-1.15-.12-1.74a.29.29 0 0 0-.27-.31m3.721-.27a.301.301 0 0 0-.6-.05a10 10 0 0 0-.25 1.95q.01.562.08 1.12q.105.807.09 1.62a.34.34 0 0 0 .26.4a.35.35 0 0 0 .4-.27c.206-.647.317-1.32.33-2q.015-.577-.06-1.15c-.07-.53-.22-1.06-.25-1.62m3.8 2.11c-.11-.47-.27-.9-.4-1.36a.3.3 0 0 0-.527-.154a.3.3 0 0 0-.063.214a14 14 0 0 0-.08 1.43q.02.603.16 1.19c.1.46.23.9.34 1.36a.34.34 0 0 0 .36.31a.34.34 0 0 0 .31-.37q.037-.714 0-1.43q.022-.3 0-.6a4 4 0 0 0-.1-.59"/><path fill="#020202" d="M16.814 7.556a1.85 1.85 0 0 0-.77-.2a36 36 0 0 0-4.381 0a19 19 0 0 0-4.541.65c-.3.14-.73.41-.73 1.76q.006 2.509.28 5.002a.74.74 0 0 0 .66.64c1.14 0 5.07-.11 7.441-.23c.78 0 1.4-.07 1.69-.1c.136-.012.269-.05.39-.11a1.15 1.15 0 0 0 .33-.73q.246-1.823.24-3.661c.014-.751-.05-1.502-.19-2.24a1.47 1.47 0 0 0-.42-.78m-1 .91a1.4 1.4 0 0 1 .31 0c-.6.32-1.89 1-3.051 1.54l-1.23.561c-.46.2-.55.29-1.07 0s-1-.59-1.51-1s-.96-.56-1.341-.89q.935-.143 1.88-.19a52 52 0 0 1 5.961-.02zm.37 5.542c0 .08-.11.09-.19.1c-1 .07-3.061.27-5.001.4c-2.44.16-3.371.2-3.651.21a.1.1 0 0 1-.11-.09a21 21 0 0 1-.1-2.43c0-1.14 0-2.391.1-3.091a23 23 0 0 0 2.19 1.94a4.5 4.5 0 0 0 1.65.91a4.7 4.7 0 0 0 1.93-.69a38 38 0 0 0 3.211-2.12c0 .24.05.51.07.81a30 30 0 0 1-.1 4.05"/></g></svg>