<svg xmlns="http://www.w3.org/2000/svg" width="24" height="24" viewBox="0 0 24 24"><g fill="none"><path fill="#fff" d="M19.158.751H4.842l-4.09 4.09V23.25h22.497V4.842z"/><path fill="#bbd8ff" d="M23.249 8.42H.75v2.557h22.5zm0 6.137H.75v2.556h22.5zm0 6.135H.75v2.557h22.5z"/><path stroke="#092f63" stroke-linecap="round" stroke-linejoin="round" d="M23.249 4.842H.75v6.135h22.5zM19.158.751H4.842l-4.09 4.09h22.497zm1.022 6.136v2.045m-2.044-2.045v2.045M16.09 6.887v2.045m7.159 2.045H.75v6.136h22.5zm-3.069 2.046v2.045m-2.044-2.045v2.045m-2.046-2.045v2.045m7.159 2.045H.75v6.136h22.5zm-3.069 2.045v2.045m-2.044-2.045v2.045m-2.046-2.045v2.045" stroke-width="1"/><path stroke="#092f63" stroke-linecap="round" stroke-linejoin="round" d="M5.097 6.63L3.82 7.91l1.278 1.278l1.279-1.279zm.001 6.136l-1.279 1.279l1.278 1.278l1.279-1.278zm0 6.136l-1.279 1.279l1.279 1.278l1.278-1.278z" stroke-width="1"/></g></svg>