<svg xmlns="http://www.w3.org/2000/svg" width="24" height="24" viewBox="0 0 24 24"><g fill="none" stroke="currentColor" stroke-width="1.5"><path d="M14.706 4.313H9.294a4.98 4.98 0 0 0-4.982 4.981v5.412a4.98 4.98 0 0 0 4.982 4.982h5.412a4.98 4.98 0 0 0 4.982-4.982V9.294a4.98 4.98 0 0 0-4.982-4.982Z"/><path d="M19.606 15.588h1.619a1.025 1.025 0 0 0 1.025-1.025V9.438a1.025 1.025 0 0 0-1.025-1.025h-1.62m-15.21 7.175h-1.62a1.025 1.025 0 0 1-1.025-1.025V9.438a1.025 1.025 0 0 1 1.025-1.025h1.62"/><path stroke-linecap="round" stroke-linejoin="round" d="M2.765 8.413v-4.1m18.46 4.1l-.01-4.1M9.95 15.237a2.91 2.91 0 0 0 4.1 0m-6.17-4.262L8.903 9.95l1.025 1.025m4.102 0l1.025-1.025l1.024 1.025"/></g></svg>