<svg xmlns="http://www.w3.org/2000/svg" width="1em" height="1em" viewBox="0 0 80 80">
	<path d="M0 0h80v80H0z" fill="none" />
	<g fill="none">
		<path fill="#2f80ed" d="M59.675 27.452c5.037-3.894 5.51-11.325 1.009-15.826s-11.931-4.028-15.825 1.007l-18.567 24.01a1.136 1.136 0 0 0 .095 1.497l7.778 7.779a1.136 1.136 0 0 0 1.499.095z" />
		<path stroke="#f2f2f2" stroke-linecap="square" stroke-width="4" d="m30.28 33.547l8.484 8.485" />
		<path fill="#9b51e0" fill-rule="evenodd" d="m26.46 38.214l7.637 7.637c.265.265.38.645.307 1.012l-.893 4.464a9.63 9.63 0 0 1-6.506 7.281l-14.103 4.513c-1.026.328-1.354-.943-.593-1.705l8.584-8.583c.555-.555 1.408-.659 2.18-.802q.095-.018.19-.044c1.785-.478 2.383-2.709 1.076-4.015s-3.537-.709-4.015 1.076a3 3 0 0 0-.043.19c-.144.772-.247 1.625-.802 2.18l-8.584 8.584c-.761.761-2.033.434-1.705-.592l4.513-14.104a9.63 9.63 0 0 1 7.281-6.506l4.464-.893c.368-.073.748.042 1.013.307" clip-rule="evenodd" />
		<path stroke="#9b51e0" stroke-linecap="round" stroke-linejoin="round" stroke-width="4" d="M8.429 72h13.008a8.02 8.02 0 0 0 5.09-1.822l3.781-3.103a2.065 2.065 0 0 1 2.62 0v0l3.786 3.107A8 8 0 0 0 41.794 72h.71a7 7 0 0 0 6.587-4.635l6.05-16.865a.572.572 0 0 1 1.076 0v0l5.18 14.44A10.66 10.66 0 0 0 71.429 72v0h1" />
	</g>
</svg>
