<svg xmlns="http://www.w3.org/2000/svg" width="80" height="80" viewBox="0 0 80 80"><rect width="80" height="80" fill="none"/><g fill="none"><path fill="#56ccf2" d="M33.609 15.016a2 2 0 0 0-2.728 2.926zm6.395 8.695l-1.364 1.463a2 2 0 0 0 2.727 0zM26.04 31.77l.585 1.913a2 2 0 0 0 1.364-2.362zm-.434-10.784a2 2 0 1 0-3.898.9zm23.517-3.043a2 2 0 0 0-2.728-2.926zm9.173 3.945a2 2 0 0 0-3.897-.899zm-4.331 9.883l-1.95-.45a2 2 0 0 0 1.364 2.362zm9.698 5.06a2 2 0 1 0 1.17-3.826zm1.17 9.828a2 2 0 0 0-1.17-3.825zm-10.868 1.234l-.586-1.913a2 2 0 0 0-1.363 2.362zm.502 11.079a2 2 0 1 0 3.898-.899zm-7.848 5.883a2 2 0 0 0 2.727-2.926zm-6.616-8.901l1.363-1.463a2 2 0 0 0-2.727 0zm-9.346 5.977a2 2 0 0 0 2.727 2.926zm-9.018-3.855a2 2 0 1 0 3.898.899zm4.401-10.183l1.95.45a2 2 0 0 0-1.364-2.363zm-9.704-5.061a2 2 0 1 0-1.17 3.825zm-1.17-9.825a2 2 0 1 0 1.17 3.825zM30.88 17.942l7.759 7.232l2.727-2.926l-7.758-7.232zm-2.89 13.38l-2.384-10.335l-3.898.9l2.383 10.334zm13.376-6.148l7.757-7.23l-2.728-2.926l-7.756 7.23zM54.4 20.99l-2.383 10.332l3.897.9l2.383-10.333zm-1.02 12.694l10.284 3.147l1.17-3.825l-10.283-3.147zm10.284 9.15L53.38 45.982l1.17 3.825l10.285-3.146zm-11.647 5.51l2.451 10.629l3.898-.899l-2.452-10.63zm-2.67 13.586l-7.98-7.438l-2.727 2.926l7.98 7.438zM38.64 54.492l-7.982 7.44l2.727 2.926l7.982-7.44zm-13.102 4.484l2.452-10.633l-3.898-.899l-2.451 10.633zm1.088-12.995l-10.289-3.148l-1.17 3.825l10.29 3.148zm-10.289-9.148l10.29-3.149l-1.17-3.825l-10.29 3.149z"/><path fill="#2f80ed" d="m40 12l2-.002a2 2 0 0 0-4 0zm24.249 14l1.001 1.731a2 2 0 0 0-2-3.464zm0 28l-.999 1.733a2 2 0 0 0 2-3.464zm-24.25 14l-2 .002a2 2 0 0 0 4 0zM15.752 54l-1.001-1.731a2 2 0 0 0 2 3.464zm0-28l.999-1.733a2 2 0 0 0-2 3.464zm18.231 10.501l-.998 1.733zm0 6.998l-.998-1.733zm12.035 0l-.998 1.733zm-5.996 3.462l-2-.002zm6.018-10.423l-1.002-1.731zm0 6.924l-1.002 1.731zM40.02 33.04l-2 .002zm5.996 3.462l.999 1.733zM38 12.002l.021 21.04l4-.005L42 11.998zm9.016 26.232l18.23-10.5l-1.996-3.467l-18.23 10.501zm16.23-13.965l-18.21 10.538l2.004 3.462l18.21-10.538zm-18.21 20.924l18.21 10.538l2.004-3.462l-18.21-10.538zm20.21 7.074l-18.23-10.501l-1.997 3.466L63.25 55.733zm-27.225-5.308L38 67.998l4 .004l.021-21.04zM42 67.998l-.021-21.04l-4 .005l.02 21.039zm-9.016-26.232l-18.231 10.5l1.997 3.467l18.23-10.501zM16.753 55.73l18.21-10.538l-2.004-3.462l-18.21 10.538zm18.21-20.924l-18.21-10.538l-2.004 3.462l18.21 10.538zm-20.21-7.074l18.231 10.501l1.997-3.466l-18.231-10.5zm27.226 5.308l.02-21.039l-4-.004l-.02 21.04zm-8.995 5.194c3.998 2.302 8.99-.58 8.995-5.194l-4-.004c-.002 1.538-1.666 2.499-2.998 1.731zm1.979 6.958c3.993-2.31 3.993-8.075 0-10.386l-2.004 3.462c1.331.77 1.331 2.692 0 3.462zm7.016 1.766c-.005-4.614-4.997-7.496-8.995-5.193l1.997 3.466c1.332-.768 2.996.193 2.998 1.73zm5.037-5.193c-3.998-2.303-8.99.58-8.995 5.193l4 .004c.002-1.538 1.666-2.499 2.998-1.731zm-1.98-6.96c-3.992 2.312-3.992 8.076 0 10.387l2.004-3.462c-1.33-.77-1.33-2.692 0-3.462zm-7.015-1.765c.005 4.614 4.997 7.496 8.995 5.194l-1.997-3.467c-1.332.768-2.996-.193-2.998-1.73z"/></g></svg>