<svg xmlns="http://www.w3.org/2000/svg" viewBox="0 0 24 24" fill="currentColor">
  <path
    d="M5.5 2a.5.5 0 01.5.5V4a.5.5 0 00.5.5h1.5a.5.5 0 010 1H6.5a.5.5 0 00-.5.5v1.5a.5.5 0 01-1 0V6a.5.5 0 00-.5-.5H3a.5.5 0 010-1h1.5A.5.5 0 005 4V2.5a.5.5 0 01.5-.5zM14 5a1 1 0 011-1h1.293a1 1 0 00.707-.293l.5-.5a1 1 0 011.414 0l.5.5a1 1 0 00.707.293H21a1 1 0 011 1v.293a1 1 0 00.293.707l.5.5a1 1 0 010 1.414l-.5.5a1 1 0 00-.293.707V10a1 1 0 01-1 1h-.293a1 1 0 00-.707.293l-.5.5a1 1 0 01-1.414 0l-.5-.5a1 1 0 00-.707-.293H15a1 1 0 01-1-1v-.293a1 1 0 00-.293-.707l-.5-.5a1 1 0 010-1.414l.5-.5A1 1 0 0014 5.293V5zM4 15a1 1 0 011-1h1.5a.5.5 0 01.5.5v1.5a1 1 0 001 1h1.5a.5.5 0 010 1H8a1 1 0 00-1 1v1.5a.5.5 0 01-1 0V19a1 1 0 00-1-1H3.5a.5.5 0 010-1H4a1 1 0 001-1v-1.5a.5.5 0 01.5-.5H6z"
  />
</svg>
