<svg xmlns="http://www.w3.org/2000/svg" width="16" height="16" viewBox="0 0 16 16"><rect width="16" height="16" fill="none"/><g fill="none"><path fill="url(#SVGIb36gcsz)" d="M2.5 9.5A1.5 1.5 0 0 0 1 11v.35c0 1.305.6 2.25 1.554 2.843C3.479 14.768 4.71 15 6 15c1.297 0 2.528-.231 3.452-.807C10.406 13.6 11 12.653 11 11.35V11a1.5 1.5 0 0 0-1.5-1.5z"/><path fill="url(#SVGKOZLteuV)" d="M2.5 9.5A1.5 1.5 0 0 0 1 11v.35c0 1.305.6 2.25 1.554 2.843C3.479 14.768 4.71 15 6 15c1.297 0 2.528-.231 3.452-.807C10.406 13.6 11 12.653 11 11.35V11a1.5 1.5 0 0 0-1.5-1.5z"/><path fill="url(#SVG769gLeUi)" d="M2.5 9.5A1.5 1.5 0 0 0 1 11v.35c0 1.305.6 2.25 1.554 2.843C3.479 14.768 4.71 15 6 15c1.297 0 2.528-.231 3.452-.807C10.406 13.6 11 12.653 11 11.35V11a1.5 1.5 0 0 0-1.5-1.5z"/><path fill="url(#SVG7Md7Nd3z)" d="M2.5 9.5A1.5 1.5 0 0 0 1 11v.35c0 1.305.6 2.25 1.554 2.843C3.479 14.768 4.71 15 6 15c1.297 0 2.528-.231 3.452-.807C10.406 13.6 11 12.653 11 11.35V11a1.5 1.5 0 0 0-1.5-1.5z"/><path fill="url(#SVG6EHHed2h)" d="M2.5 9.5A1.5 1.5 0 0 0 1 11v.35c0 1.305.6 2.25 1.554 2.843C3.479 14.768 4.71 15 6 15c1.297 0 2.528-.231 3.452-.807C10.406 13.6 11 12.653 11 11.35V11a1.5 1.5 0 0 0-1.5-1.5z"/><path fill="url(#SVG5fugJpUB)" d="M6.5 1.5a.5.5 0 0 0-1 0v1h1z"/><path fill="url(#SVG7JthvzXc)" d="M8.5 2A1.5 1.5 0 0 1 10 3.5v3A1.5 1.5 0 0 1 8.5 8h-5A1.5 1.5 0 0 1 2 6.5v-3A1.5 1.5 0 0 1 3.5 2z"/><path fill="url(#SVGuWJybbOW)" d="M7.5 4.25a.75.75 0 1 0 0 1.5a.75.75 0 0 0 0-1.5"/><path fill="url(#SVGUQPt5pZa)" d="M3.75 5a.75.75 0 1 1 1.5 0a.75.75 0 0 1-1.5 0"/><path fill="url(#SVG3ywJgcGu)" d="m15.783 13.213l-.765-.248a1.58 1.58 0 0 1-1-.998l-.248-.765a.302.302 0 0 0-.57 0l-.25.765a1.58 1.58 0 0 1-.983.998l-.765.248a.302.302 0 0 0 0 .57l.765.249a1.58 1.58 0 0 1 1 1.002l.248.764a.302.302 0 0 0 .57 0l.249-.764a1.58 1.58 0 0 1 .999-.999l.765-.248a.302.302 0 0 0 0-.57z"/><path fill="url(#SVGzW8eldnf)" d="m10.878 5.282l.348 1.071a2.2 2.2 0 0 0 1.398 1.397l1.072.348l.021.006a.423.423 0 0 1 0 .798l-1.071.348a2.2 2.2 0 0 0-1.399 1.397l-.348 1.07a.423.423 0 0 1-.798 0l-.348-1.07A2.2 2.2 0 0 0 9.1 9.67a2.2 2.2 0 0 0-.747-.426l-1.072-.348a.423.423 0 0 1 0-.798l1.072-.348A2.2 2.2 0 0 0 9.73 6.353l.348-1.07a.423.423 0 0 1 .799 0"/><defs><linearGradient id="SVGKOZLteuV" x1="6" x2="8.699" y1="8.845" y2="18.014" gradientUnits="userSpaceOnUse"><stop stop-color="#885edb" stop-opacity="0"/><stop offset="1" stop-color="#e362f8"/></linearGradient><linearGradient id="SVG5fugJpUB" x1="5.477" x2="6.532" y1="1" y2="2.229" gradientUnits="userSpaceOnUse"><stop stop-color="#8b52f4"/><stop offset="1" stop-color="#3d35b1"/></linearGradient><linearGradient id="SVGuWJybbOW" x1="7.106" x2="8.243" y1="4.308" y2="6.27" gradientUnits="userSpaceOnUse"><stop stop-color="#fdfdfd"/><stop offset="1" stop-color="#f9dcfa"/></linearGradient><linearGradient id="SVGUQPt5pZa" x1="4.106" x2="5.243" y1="4.308" y2="6.27" gradientUnits="userSpaceOnUse"><stop stop-color="#fdfdfd"/><stop offset="1" stop-color="#f9dcfa"/></linearGradient><linearGradient id="SVG3ywJgcGu" x1="12" x2="15.002" y1="11.5" y2="15.499" gradientUnits="userSpaceOnUse"><stop stop-color="#ffa43d"/><stop offset="1" stop-color="#fb5937"/></linearGradient><linearGradient id="SVGzW8eldnf" x1="12.5" x2="7.591" y1="11" y2="5.356" gradientUnits="userSpaceOnUse"><stop stop-color="#ff8a69"/><stop offset="1" stop-color="#ffcd0f"/></linearGradient><radialGradient id="SVGIb36gcsz" cx="0" cy="0" r="1" gradientTransform="rotate(32.84 -13.9 1.685)scale(14.2768 23.736)" gradientUnits="userSpaceOnUse"><stop stop-color="#f08af4"/><stop offset=".535" stop-color="#9c6cfe"/><stop offset="1" stop-color="#4e44db"/></radialGradient><radialGradient id="SVG769gLeUi" cx="0" cy="0" r="1" gradientTransform="matrix(0 -2.5 1.29025 0 10.5 11)" gradientUnits="userSpaceOnUse"><stop stop-color="#4e44db"/><stop offset="1" stop-color="#4e44db" stop-opacity="0"/></radialGradient><radialGradient id="SVG7Md7Nd3z" cx="0" cy="0" r="1" gradientTransform="matrix(-2 -2 1.49321 -1.49321 10 10)" gradientUnits="userSpaceOnUse"><stop stop-color="#4e44db"/><stop offset="1" stop-color="#4e44db" stop-opacity="0"/></radialGradient><radialGradient id="SVG6EHHed2h" cx="0" cy="0" r="1" gradientTransform="matrix(-4.5 0 0 -1.94219 10.5 9.5)" gradientUnits="userSpaceOnUse"><stop stop-color="#4e44db"/><stop offset="1" stop-color="#4e44db" stop-opacity="0"/></radialGradient><radialGradient id="SVG7JthvzXc" cx="0" cy="0" r="1" gradientTransform="rotate(45 1.112 -.15)scale(13.4772 26.308)" gradientUnits="userSpaceOnUse"><stop stop-color="#f08af4"/><stop offset=".535" stop-color="#9c6cfe"/><stop offset="1" stop-color="#4e44db"/></radialGradient></defs></g></svg>