<svg xmlns="http://www.w3.org/2000/svg" width="80" height="80" viewBox="0 0 80 80"><rect width="80" height="80" fill="none"/><path fill="#9b51e0" fill-rule="evenodd" d="M43.27 15.18a24.9 24.9 0 0 1 11.247 4.454l4.307-4.275a30.84 30.84 0 0 0-15.578-6.223zm-7.556.144l.023-6.074a30.86 30.86 0 0 0-15.16 6.523l4.293 4.26a24.9 24.9 0 0 1 10.844-4.709M19.603 25.456l-4.276-4.31a30.84 30.84 0 0 0-6.142 15.097l6.058-.023a24.9 24.9 0 0 1 4.36-10.764m-4.35 18.324l-6.06-.023a30.84 30.84 0 0 0 6.165 15.065l4.274-4.308a24.9 24.9 0 0 1-4.378-10.734m9.658 16.146l-4.294 4.261a30.86 30.86 0 0 0 15.12 6.492l-.023-6.075a24.9 24.9 0 0 1-10.803-4.678m18.359 4.822l-.023 6.045A30.84 30.84 0 0 0 58.784 64.6l-4.31-4.275a24.86 24.86 0 0 1-11.204 4.423m16.624-9.688l4.26 4.293a30.85 30.85 0 0 0 6.581-15.6l-6.06.023a24.9 24.9 0 0 1-4.781 11.284m4.792-18.836l6.058.023a30.85 30.85 0 0 0-6.559-15.632l-4.26 4.294a24.9 24.9 0 0 1 4.761 11.315" clip-rule="evenodd"/></svg>