<svg xmlns="http://www.w3.org/2000/svg" width="14" height="14" viewBox="0 0 14 14"><rect width="14" height="14" fill="none"/><g fill="none"><path fill="#d7e0ff" d="M8.076 4.258a4 4 0 0 1 .821-2.008a.84.84 0 0 1 1.327 0c.435.554.728 1.233.821 2.008a4 4 0 0 1 2.008.822a.84.84 0 0 1 0 1.326a4 4 0 0 1-2.008.821a4 4 0 0 1-.821 2.008a.84.84 0 0 1-1.327 0a4 4 0 0 1-.821-2.008a4 4 0 0 1-2.008-.821a.84.84 0 0 1 0-1.326a4 4 0 0 1 2.008-.822M2.519 8.956a3.25 3.25 0 0 1 .668-1.633a.682.682 0 0 1 1.078 0c.354.45.592 1.002.668 1.633c.63.075 1.182.314 1.632.668a.682.682 0 0 1 0 1.078a3.25 3.25 0 0 1-1.632.668a3.25 3.25 0 0 1-.668 1.632a.682.682 0 0 1-1.078 0a3.25 3.25 0 0 1-.668-1.632a3.25 3.25 0 0 1-1.632-.668a.682.682 0 0 1 0-1.079a3.25 3.25 0 0 1 1.632-.667"/><path fill="#fff" d="M1.995 2.107A2.35 2.35 0 0 1 2.479.925c.2-.255.58-.255.78 0c.256.326.429.726.483 1.182a2.35 2.35 0 0 1 1.182.483c.255.2.255.58 0 .78a2.35 2.35 0 0 1-1.182.484a2.35 2.35 0 0 1-.483 1.182a.494.494 0 0 1-.78 0a2.35 2.35 0 0 1-.484-1.182a2.35 2.35 0 0 1-1.181-.483a.494.494 0 0 1 0-.78a2.35 2.35 0 0 1 1.181-.484"/><path stroke="#4147d5" stroke-linecap="round" stroke-linejoin="round" d="M8.076 4.258a4 4 0 0 1 .821-2.008a.84.84 0 0 1 1.327 0c.435.554.728 1.233.821 2.008a4 4 0 0 1 2.008.822a.84.84 0 0 1 0 1.326a4 4 0 0 1-2.008.821a4 4 0 0 1-.821 2.008a.84.84 0 0 1-1.327 0a4 4 0 0 1-.821-2.008a4 4 0 0 1-2.008-.821a.84.84 0 0 1 0-1.326a4 4 0 0 1 2.008-.822M2.519 8.956a3.25 3.25 0 0 1 .668-1.633a.682.682 0 0 1 1.078 0c.354.45.592 1.002.668 1.633c.63.075 1.182.314 1.632.668a.682.682 0 0 1 0 1.078a3.25 3.25 0 0 1-1.632.668a3.25 3.25 0 0 1-.668 1.632a.682.682 0 0 1-1.078 0a3.25 3.25 0 0 1-.668-1.632a3.25 3.25 0 0 1-1.632-.668a.682.682 0 0 1 0-1.079a3.25 3.25 0 0 1 1.632-.667m-.524-6.849A2.35 2.35 0 0 1 2.479.925c.2-.255.58-.255.78 0c.256.326.429.726.483 1.182a2.35 2.35 0 0 1 1.182.483c.255.2.255.58 0 .78a2.35 2.35 0 0 1-1.182.484a2.35 2.35 0 0 1-.483 1.182a.494.494 0 0 1-.78 0a2.35 2.35 0 0 1-.484-1.182a2.35 2.35 0 0 1-1.181-.483a.494.494 0 0 1 0-.78a2.35 2.35 0 0 1 1.181-.484" stroke-width="1"/></g></svg>