<svg xmlns="http://www.w3.org/2000/svg" width="24" height="24" viewBox="0 0 24 24"><rect width="24" height="24" fill="none"/><g fill="none"><path fill="#fff" d="M19.174 4.826H5.783a1.913 1.913 0 1 1 0-3.826h12.434a.956.956 0 0 1 .957.957z"/><path fill="#66e1ff" d="M19.174 4.826a.956.956 0 0 1 .957.957v16.26a.956.956 0 0 1-.957.957H5.783a1.913 1.913 0 0 1-1.913-1.913V2.913a1.913 1.913 0 0 0 1.913 1.913z"/><path fill="#c2f3ff" d="M7.142 21.087V4.827h-1.36A1.913 1.913 0 0 1 3.87 2.912v18.174A1.913 1.913 0 0 0 5.783 23h3.272a1.913 1.913 0 0 1-1.913-1.913"/><path stroke="#191919" stroke-linecap="round" stroke-linejoin="round" d="M5.783 2.913h10.521a.956.956 0 0 1 .957.957v.956" stroke-width="1"/><path stroke="#191919" stroke-linecap="round" stroke-linejoin="round" d="M19.174 4.826v-2.87A.957.957 0 0 0 18.217 1H5.783A1.913 1.913 0 0 0 3.87 2.913m15.304 1.913H5.783A1.913 1.913 0 0 1 3.87 2.913m15.304 1.913a.956.956 0 0 1 .957.957v16.26a.956.956 0 0 1-.957.957H5.783a1.913 1.913 0 0 1-1.913-1.913V2.913" stroke-width="1"/><path fill="#ffef5e" d="m12.674 8.11l1.472 3.412h2.864a.704.704 0 0 1 .496 1.227l-2.49 2.216l1.378 3.17a.75.75 0 0 1-1.068.938l-3.323-1.875l-3.327 1.88a.75.75 0 0 1-1.068-.94l1.374-3.173l-2.487-2.215a.702.702 0 0 1 .492-1.228h2.87l1.473-3.415a.765.765 0 0 1 1.348 0z"/><path fill="#fff9bf" d="m14.147 11.522l-1.473-3.415a.765.765 0 0 0-1.347 0l-1.475 3.415h-2.87a.703.703 0 0 0-.491 1.227l2.486 2.215l-1.37 3.172a.74.74 0 0 0-.009.53l7.142-7.144z"/><path stroke="#191919" stroke-linecap="round" stroke-linejoin="round" d="m12.674 8.11l1.472 3.412h2.864a.704.704 0 0 1 .496 1.227l-2.49 2.216l1.378 3.17a.75.75 0 0 1-1.068.938l-3.323-1.875l-3.327 1.88a.75.75 0 0 1-1.068-.94l1.374-3.173l-2.487-2.215a.702.702 0 0 1 .492-1.228h2.87l1.473-3.415a.765.765 0 0 1 1.348 0z" stroke-width="1"/></g></svg>