<svg xmlns="http://www.w3.org/2000/svg" width="80" height="80" viewBox="0 0 80 80"><rect width="80" height="80" fill="none"/><g fill="#f2c94c"><path fill-rule="evenodd" d="M35.757 14.243a6 6 0 0 1 8.486 0l16 16A6 6 0 0 1 62 34.485V64a6 6 0 0 1-6 6H24a6 6 0 0 1-6-6V34.485a6 6 0 0 1 1.757-4.242z" clip-rule="evenodd"/><path d="m60.243 30.243l1.414-1.415zM62 34.485h-2zm-.343-5.657l-16-16l-2.829 2.829l16 16zM60 34.486V64h4V34.485zM56 68H24v4h32zm-36-4V34.485h-4V64zm14.343-51.17l-16 16l2.829 2.828l16-16zM20 34.485a4 4 0 0 1 1.172-2.828l-2.829-2.829A8 8 0 0 0 16 34.486zM24 68a4 4 0 0 1-4-4h-4a8 8 0 0 0 8 8zm36-4a4 4 0 0 1-4 4v4a8 8 0 0 0 8-8zM45.657 12.83a8 8 0 0 0-11.314 0l2.829 2.828a4 4 0 0 1 5.656 0zm13.171 18.828A4 4 0 0 1 60 34.485h4a8 8 0 0 0-2.343-5.657z"/><path stroke="#eb5757" stroke-linecap="round" stroke-linejoin="round" stroke-width="4" d="M36.5 28.5a4.95 4.95 0 1 1 7 7a4.95 4.95 0 0 1-7-7"/></g></svg>