<svg xmlns="http://www.w3.org/2000/svg" width="1em" height="1em" viewBox="0 0 14 14">
	<path d="M0 0h14v14H0z" fill="none" />
	<g fill="none">
		<path fill="#8fbffa" d="M0 7a7 7 0 1 0 14 0A7 7 0 1 0 0 7" />
		<path fill="#2859c5" fill-rule="evenodd" d="M11.485.379a.5.5 0 0 0-.839-.233l-2 2a.5.5 0 0 0-.131.475l.36 1.444l-.014.014L6.47 6.47a.75.75 0 0 0 1.06 1.06l2.393-2.39l.014-.015l1.443.361a.5.5 0 0 0 .475-.131l2-2a.5.5 0 0 0-.233-.84l-1.709-.426zm-4.168.38a.75.75 0 0 1-.696.8a5.47 5.47 0 1 0 5.831 5.89a.75.75 0 1 1 1.496.119A6.97 6.97 0 1 1 6.517.062a.75.75 0 0 1 .8.696m-.672 3.299a.75.75 0 0 1-.425.972a2.12 2.12 0 1 0 2.75 2.742a.75.75 0 1 1 1.398.544a3.62 3.62 0 1 1-4.694-4.683a.75.75 0 0 1 .971.425" clip-rule="evenodd" />
	</g>
</svg>
