<svg xmlns="http://www.w3.org/2000/svg" width="14" height="14" viewBox="0 0 14 14"><g fill="none"><path fill="#d7e0ff" d="M1.092 10.525c.161 1.44 1.331 2.582 2.778 2.652c1 .048 2.021.073 3.13.073s2.13-.025 3.13-.073c1.447-.07 2.617-1.213 2.778-2.652c.109-.97.198-1.963.198-2.976s-.09-2.006-.198-2.975c-.161-1.44-1.331-2.582-2.778-2.652c-1-.048-2.021-.073-3.13-.073s-2.13.025-3.13.073c-1.447.07-2.617 1.213-2.778 2.652c-.109.97-.198 1.963-.198 2.975s.09 2.007.198 2.976"/><path stroke="#4147d5" stroke-linecap="round" stroke-linejoin="round" d="M1.092 10.525c.161 1.44 1.331 2.582 2.778 2.652c1 .048 2.021.073 3.13.073s2.13-.025 3.13-.073c1.447-.07 2.617-1.213 2.778-2.652c.109-.97.198-1.963.198-2.976s-.09-2.006-.198-2.975c-.161-1.44-1.331-2.582-2.778-2.652c-1-.048-2.021-.073-3.13-.073s-2.13.025-3.13.073c-1.447.07-2.617 1.213-2.778 2.652c-.109.97-.198 1.963-.198 2.975s.09 2.007.198 2.976M4 .75v2.54m6-2.54v2.54M7 .75v2.54M3.922 6.502h6.156M3.922 9.471h2.951" stroke-width="1"/></g></svg>