<svg xmlns="http://www.w3.org/2000/svg" width="24" height="24" viewBox="0 0 24 24"><rect width="24" height="24" fill="none"/><g fill="none" stroke-width="1.5"><path fill="#fff" d="M16 2H2v5.72A9.65 9.65 0 0 0 9 17a9.65 9.65 0 0 0 7-9.28z"/><path fill="#d7e0ff" d="M22.203 9.123L8.68 5.5L7.2 11.025a9.65 9.65 0 0 0 4.359 10.776a9.65 9.65 0 0 0 9.163-7.152z"/><path stroke="#4147d5" d="M22.203 9.123L8.68 5.5L7.2 11.025a9.65 9.65 0 0 0 4.359 10.776a9.65 9.65 0 0 0 9.163-7.152z"/><path stroke="#4147d5" d="M9.5 12.168a1.5 1.5 0 1 1 2.898.776m2.827.905a1.5 1.5 0 1 1 2.898.776M16 4.5V2H2v5.72c0 2.365.86 4.573 2.323 6.28"/></g></svg>