<svg xmlns="http://www.w3.org/2000/svg" width="1em" height="1em" viewBox="0 0 24 24"><g fill="none" fill-rule="evenodd"><path d="m12.593 23.258l-.011.002l-.071.035l-.02.004l-.014-.004l-.071-.035q-.016-.005-.024.005l-.004.01l-.017.428l.005.02l.01.013l.104.074l.015.004l.012-.004l.104-.074l.012-.016l.004-.017l-.017-.427q-.004-.016-.017-.018m.265-.113l-.013.002l-.185.093l-.01.01l-.003.011l.018.43l.005.012l.008.007l.201.093q.019.005.029-.008l.004-.014l-.034-.614q-.005-.018-.02-.022m-.715.002a.02.02 0 0 0-.027.006l-.006.014l-.034.614q.001.018.017.024l.015-.002l.201-.093l.01-.008l.004-.011l.017-.43l-.003-.012l-.01-.01z"/><path fill="currentColor" d="M9.821 3.212c.296-.69 1.06-1.316 2.024-1.13c1.474.283 3.039 1.401 3.149 3.214L15 5.5V8h2.405a4 4 0 0 1 3.966 4.522l-.03.194l-.91 5a4 4 0 0 1-3.736 3.28l-.199.004H6a3 3 0 0 1-2.995-2.824L3 18v-6a3 3 0 0 1 2.824-2.995L6 9h1.34zM7 11H6a1 1 0 0 0-1 1v6a1 1 0 0 0 1 1h1zm4.625-6.92l-2.544 5.937a1 1 0 0 0-.072.259L9 10.41V19h7.496a2 2 0 0 0 1.933-1.486l.035-.156l.91-5a2 2 0 0 0-1.82-2.353L17.405 10H15a2 2 0 0 1-1.995-1.85L13 8V5.5c0-.553-.434-1.116-1.205-1.37z"/></g></svg>