<svg xmlns="http://www.w3.org/2000/svg" width="1em" height="1em" viewBox="0 0 32 32">
	<path d="M0 0h32v32H0z" fill="none" />
	<g fill="none">
		<path fill="url(#SVGQwbKmckK)" d="M9 6.25A3.25 3.25 0 0 1 12.25 3h7.5A3.25 3.25 0 0 1 23 6.25V8.5h-2V6.25C21 5.56 20.44 5 19.75 5h-7.5C11.56 5 11 5.56 11 6.25V8.5H9z" />
		<path fill="url(#SVGV5tQ8dEL)" d="M5.25 28A3.25 3.25 0 0 1 2 24.75V15.5h28v9.25A3.25 3.25 0 0 1 26.75 28z" />
		<path fill="url(#SVGu0rkzd4r)" d="M2 11.25A3.25 3.25 0 0 1 5.25 8h21.5A3.25 3.25 0 0 1 30 11.25V16H2z" />
		<path fill="url(#SVGbTclpeMS)" d="M22 13a1 1 0 0 1 1 1v4a1 1 0 1 1-2 0v-4a1 1 0 0 1 1-1" />
		<path fill="url(#SVGbTclpeMS)" d="M10 13a1 1 0 0 1 1 1v4a1 1 0 1 1-2 0v-4a1 1 0 0 1 1-1" />
		<defs>
			<linearGradient id="SVGQwbKmckK" x1="4" x2="4.724" y1="3" y2="7.8" gradientUnits="userSpaceOnUse">
				<stop stop-color="#b9c0c7" />
				<stop offset="1" stop-color="#70777d" />
			</linearGradient>
			<linearGradient id="SVGV5tQ8dEL" x1=".25" x2="3.072" y1="10.813" y2="40.212" gradientUnits="userSpaceOnUse">
				<stop offset=".125" stop-color="#f97dbd" />
				<stop offset="1" stop-color="#d7257d" />
			</linearGradient>
			<linearGradient id="SVGu0rkzd4r" x1=".25" x2=".942" y1="5" y2="24.145" gradientUnits="userSpaceOnUse">
				<stop stop-color="#f97dbd" />
				<stop offset="1" stop-color="#d7257d" />
			</linearGradient>
			<linearGradient id="SVGbTclpeMS" x1="4" x2="4.858" y1="13" y2="18.214" gradientUnits="userSpaceOnUse">
				<stop stop-color="#efefef" />
				<stop offset="1" stop-color="#dadada" />
			</linearGradient>
		</defs>
	</g>
</svg>
