<svg xmlns="http://www.w3.org/2000/svg" width="1em" height="1em" viewBox="0 0 24 24">
	<path d="M0 0h24v24H0z" fill="none" />
	<g fill="none" fill-rule="evenodd" clip-rule="evenodd">
		<path fill="#020202" d="M22.559 11.474a1.4 1.4 0 0 0-.95-.39c-2.588-.07-5.146-.13-7.724-.18l-11.58-.18c-.422 0-.828.157-1.14.44c-.308.29-.494.687-.52 1.109c-.06 1.11-.12 2.528-.16 3.897c0 1.519-.06 2.997-.06 3.907q-.022.807.07 1.609c.063.442.25.858.54 1.199c.419.43.954.729 1.54.859c1.155.213 2.332.294 3.507.24h3.477c2.688 0 5.376-.16 8.064-.21q1.403.054 2.797-.11a3.1 3.1 0 0 0 1.849-1c.333-.397.572-.865.7-1.368a9.4 9.4 0 0 0 .21-2.158V15.14c-.09-2.638-.13-3.148-.62-3.668m-.18 7.654c.01.672-.06 1.343-.21 1.998a2.5 2.5 0 0 1-.54 1.05c-.361.37-.843.6-1.359.649c-.884.069-1.773.069-2.657 0c-2.688 0-5.376.08-8.064.08c-1.15 0-2.288 0-3.437-.05q-1.42.03-2.828-.12a2.32 2.32 0 0 1-1.41-.61a1.26 1.26 0 0 1-.269-.64a10 10 0 0 1-.05-1.438v-3.078c0-1.589.08-3.347.14-4.646a.57.57 0 0 1 .17-.4a.6.6 0 0 1 .4-.16c3.996 0 7.833-.07 11.59-.08h7.715c.2 0 .392.074.539.21c.26.24.28.29.29 3.198c.04 1.469.01 2.897-.02 4.037" />
		<path fill="#0c6fff" d="M20.67 13.752a.35.35 0 0 0-.36-.31a.35.35 0 0 0-.21.1c-1.069-.05-2.118-.13-3.167-.16h-2.258a.37.37 0 0 0-.34.32a1.64 1.64 0 0 1-.83 1.339a3.7 3.7 0 0 1-1.768.25a5 5 0 0 1-.93-.1a1.23 1.23 0 0 1-.659-.36a1.1 1.1 0 0 1-.22-.49a4 4 0 0 1-.07-.7a.49.49 0 0 0-.499-.449c-1.389 0-2.778-.07-4.157 0q-.924.027-1.838.16a.56.56 0 0 0-.47.55v2.847c0 .59 0 1.21.09 1.909q.016.73.15 1.449c.096.368.274.709.52 1a2.7 2.7 0 0 0 1.718.878q1.19.098 2.378 0c1.819 0 3.637 0 5.446-.06c1.22 0 2.438-.06 3.657-.13a11.4 11.4 0 0 0 2.478-.19c.414-.093.79-.309 1.08-.619c.292-.348.486-.77.559-1.219q.09-.864 0-1.729zm-15.428.49c1.23-.07 2.458 0 3.697-.06q.043.285.13.559c.079.265.22.508.41.71c.244.255.55.44.89.539c.442.119.9.17 1.358.15a3.8 3.8 0 0 0 2.548-.67c.38-.365.626-.847.7-1.369h1.898c1 0 2.059 0 3.098.08l.17 3.608a65 65 0 0 0-6.405-.46H9.689c-1.889.05-3.777.16-5.656.2V14.37c.38-.08.8-.11 1.21-.13m14.909 5.375a1.6 1.6 0 0 1-.36.79a1.52 1.52 0 0 1-1 .42q-.997.08-1.998.05h-2.718c-2.118 0-4.236 0-6.355-.05a12.6 12.6 0 0 1-2.198 0a1.64 1.64 0 0 1-1-.46a1.3 1.3 0 0 1-.259-.57a7 7 0 0 1-.12-1.249v-.43c2.088.13 4.187.24 6.295.26h3.997c1.919 0 3.847 0 5.756.07c.035.39.022.783-.04 1.17" />
		<path fill="#020202" d="M12.227 14.152a.6.6 0 0 0 .29-.1c.23-.19.41-.41.36-.65s-.08-.5-.33-.57a.6.6 0 0 0-.35-.06a.2.2 0 0 0-.16 0a.8.8 0 0 0-.35.09c-.11 0-.13.15-.23.26s-.06.5.08.74a.75.75 0 0 0 .69.29M2.145 9.535a.3.3 0 1 0 .56-.19L1.274 5.09a.58.58 0 0 1 0-.43a.6.6 0 0 1 .31-.28q.459-.146.88-.38q.284-.166.519-.4c.6-.569 1-1.298 1.599-1.828a2.1 2.1 0 0 1 .71-.43c.257-.085.532-.102.799-.05c.54.09 1.069.3 1.638.34q.425.045.85 0a8 8 0 0 0 1.169-.25a.55.55 0 0 1 .38 0a.55.55 0 0 1 .28.28l1.928 4.827a.33.33 0 0 0 .43.18a.33.33 0 0 0 .21-.45l-1.69-4.926a1.57 1.57 0 0 0-.709-.79a1.6 1.6 0 0 0-1.06-.13a7 7 0 0 1-.868.16a3 3 0 0 1-.8 0C7.2.482 6.601.202 5.982.152c-.339-.03-.68.015-1 .13c-.416.14-.8.36-1.129.65c-.6.55-.999 1.319-1.579 1.918q-.208.197-.45.35q-.28.163-.579.29c-.336.16-.602.437-.75.78a1.52 1.52 0 0 0 0 1.068zm10.891.22a.3.3 0 0 0 .42 0c.59-.5.999-.82 1.329-1.12c.33-.299.36-.359.52-.529s.31-.36.469-.57c.16-.21.5-.669.86-1.158l.419.35c.28.23.64.509 1 .789l.269.22l-.54.49q-.136.145-.25.309q-.113.151-.2.32c-.1.2-.18.45-.359.879a.3.3 0 0 0 .47.36c.37-.29.59-.44.75-.6q.147-.139.259-.31q.113-.167.2-.35c.07-.14.14-.32.25-.579a1.26 1.26 0 0 1 .39 1.21a.34.34 0 0 0 .629.239a2 2 0 0 0-.28-1.998a3 3 0 0 0-.32-.43q.601-.37 1.1-.87q.295-.28.549-.599q.22-.327.4-.68a8.6 8.6 0 0 0 .5-1.288h.1a1.91 1.91 0 0 0 1.617-1.94A1.7 1.7 0 0 0 22.119.003a.32.32 0 0 0-.23.06h-.06a2.8 2.8 0 0 0-1.109.39a2 2 0 0 0-.77.998a1.4 1.4 0 0 0-.07.75c-.349.24-.699.49-.998.76q-.316.24-.59.529q-.284.284-.52.61c-.303.401-.57.83-.799 1.278l-.22-.13a2.9 2.9 0 0 0-1.249-.41c-.32-.018-.64.066-.91.24a.3.3 0 0 0-.129.4a.3.3 0 0 0 .4.12a.88.88 0 0 1 .55 0c.226.06.435.173.609.33c-.44.38-.78.66-1 .91c-.22.249-.37.349-.529.529a6 6 0 0 0-.52.53c-.27.36-.54.809-.999 1.448a.29.29 0 0 0 .06.41M20.82 1.76c.03-.286.157-.554.36-.76c.232-.177.502-.3.79-.359h.08a1 1 0 0 1 .639 1.17a.93.93 0 0 1-.82.888a1 1 0 0 1-.73-.31a.77.77 0 0 1-.319-.669zM18.562 4.8c.18-.17.35-.35.52-.53l.509-.55l.63-.719a.8.8 0 0 0 .1.15c.203.23.456.41.739.53c-.3.47-.63.929-1 1.389l-.429.62c-.15.219-.27.439-.42.639s-.24.29-.36.43l-.11-.12c-.359-.31-.739-.57-.999-.8l-.15-.1c.32-.32.65-.62.97-.94" />
		<path fill="#020202" d="m3.983 5.848l.62-.52c.3-.33.56-.69.889-.999c.156-.145.34-.257.54-.33c.232-.058.476-.058.709 0c.48.07.93.26 1.459.32q.244.03.49 0q.242-.028.47-.12a.21.21 0 0 1 .189 0a.27.27 0 0 1 .17.13c.28.56.54 1.12.8 1.679c.259.56.509 1.149.749 1.719a.34.34 0 0 0 .63-.24l-1.32-3.607a1.2 1.2 0 0 0-.64-.65a1.24 1.24 0 0 0-.929 0h-.46c-.629-.1-1.148-.36-1.728-.41a2.5 2.5 0 0 0-1.928.73a12 12 0 0 0-.9 1.119l-.43.41a1.26 1.26 0 0 0-.38.64c-.079.25-.079.518 0 .768l1.33 2.998a.3.3 0 0 0 .55-.22l-1-3.087a.32.32 0 0 1 .12-.33" />
	</g>
</svg>
