<svg xmlns="http://www.w3.org/2000/svg" class="w-6 h-6 text-blue-400" viewBox="0 0 24 24" fill="currentColor">
  <path d="M23 4.5a9.55 9.55 0 0 1-2.828.775A4.93 4.93 0 0 0 22.4 3c-.949.56-2 .969-3.124 1.184a4.917 4.917 0 0 0-8.384 4.478C7.69 8.428 4.064 6.778 1.64 3.962A4.917 4.917 0 0 0 3.16 9.5a4.9 4.9 0 0 1-2.228-.616v.06a4.917 4.917 0 0 0 3.946 4.814 4.926 4.926 0 0 1-2.224.085 4.918 4.918 0 0 0 4.604 3.416A9.865 9.865 0 0 1 0 20.077a13.896 13.896 0 0 0 7.548 2.212c9.057 0 14.01-7.514 14.01-14.014 0-.213-.005-.426-.014-.637A9.935 9.935 0 0 0 23 4.5z" />
</svg>
