<svg xmlns="http://www.w3.org/2000/svg" width="80" height="80" viewBox="0 0 80 80"><rect width="80" height="80" fill="none"/><g fill="none"><path fill="#f2c94c" fill-rule="evenodd" d="M24.967 39.306a6.097 6.097 0 0 1-11.934 0l-.13-.618a6.6 6.6 0 0 1 1.138-5.258l.21-.286a5.89 5.89 0 0 1 9.497 0l.21.286a6.6 6.6 0 0 1 1.139 5.258zM8 56.133C8 57.164 8.836 58 9.867 58H21.31a12.75 12.75 0 0 1 5.564-7.935a7.5 7.5 0 0 0-1.671-.895l-.422-.161a16.22 16.22 0 0 0-11.564 0l-.422.16A7.45 7.45 0 0 0 8 56.134M70.133 58H58.69a12.75 12.75 0 0 0-5.564-7.935a7.5 7.5 0 0 1 1.671-.895l.422-.161a16.22 16.22 0 0 1 11.564 0l.422.16A7.45 7.45 0 0 1 72 56.134c0 1.03-.836 1.866-1.867 1.866m-15.1-18.693a6.097 6.097 0 0 0 11.934 0l.13-.619a6.6 6.6 0 0 0-1.138-5.258l-.21-.286a5.89 5.89 0 0 0-9.497 0l-.21.286a6.6 6.6 0 0 0-1.139 5.258z" clip-rule="evenodd"/><path fill="#f2c94c" d="m21.826 43.455l.927 1.773zm3.14-4.149l-1.957-.41zm-8.792 4.15l.927-1.773zm-3.14-4.15l1.957-.41zm-.13-.618l-1.958.412zm1.137-5.258l1.612 1.184zm.21-.286L12.64 31.96zm9.497 0l1.612-1.184zm.21.286l-1.611 1.184zm1.139 5.258l1.957.412zM21.31 58v2a2 2 0 0 0 1.95-1.561zm5.564-7.935l1.078 1.685a2 2 0 0 0 .084-3.313zm-1.671-.895l-.713 1.868zm-.422-.161l.713-1.869zm-11.564 0l.713 1.868zm-.422.16l-.713-1.868zM58.689 58l-1.95.44a2 2 0 0 0 1.95 1.56zm-5.564-7.935l-1.161-1.628a2 2 0 0 0 .083 3.313zm1.671-.895l.713 1.868zm.422-.161l-.713-1.869zm11.564 0l-.713 1.868zm.422.16l.713-1.868zm-9.03-5.713l.927-1.773zm-3.14-4.15l1.956-.41zm8.792 4.15l-.927-1.773zm3.14-4.15l-1.956-.41zm.13-.617l-1.957-.412zM65.96 33.43l1.612-1.183zm-.21-.286l-1.613 1.184zm-9.497 0l1.612 1.184zm-.21.286l-1.613-1.183zm-1.139 5.258l-1.957.412zm-32.15 6.54a8.1 8.1 0 0 0 4.171-5.51l-3.915-.823a4.1 4.1 0 0 1-2.11 2.788zm-7.506 0a8.1 8.1 0 0 0 7.506 0L20.9 41.683a4.1 4.1 0 0 1-3.798 0zm-4.171-5.51a8.1 8.1 0 0 0 4.171 5.51l1.854-3.545a4.1 4.1 0 0 1-2.11-2.788zm-.13-.618l.13.618l3.915-.823l-.13-.618zm1.483-6.854a8.6 8.6 0 0 0-1.483 6.854l3.915-.823a4.6 4.6 0 0 1 .792-3.663zm.21-.286l-.21.286l3.224 2.368l.21-.287zM19 28.74a7.89 7.89 0 0 0-6.36 3.22l3.224 2.367A3.89 3.89 0 0 1 19 32.74zm6.36 3.22A7.89 7.89 0 0 0 19 28.74v4a3.89 3.89 0 0 1 3.136 1.587zm.21.286l-.21-.286l-3.224 2.367l.21.287zm1.484 6.854a8.6 8.6 0 0 0-1.483-6.854l-3.224 2.368a4.6 4.6 0 0 1 .792 3.663zm-.13.618l.13-.618l-3.915-.823l-.13.618zM9.867 56c.073 0 .133.06.133.133H6A3.867 3.867 0 0 0 9.867 60zm11.444 0H9.867v4H21.31zm4.486-7.62a14.75 14.75 0 0 0-6.437 9.18l3.902.879a10.75 10.75 0 0 1 4.69-6.69zm-1.306 2.658c.442.169.851.39 1.223.655l2.323-3.256a9.5 9.5 0 0 0-2.12-1.136zm-.422-.16l.422.16l1.426-3.737l-.422-.16zm-10.138 0a14.22 14.22 0 0 1 10.138 0l1.426-3.738a18.22 18.22 0 0 0-12.99 0zm-.422.16l.422-.16l-1.426-3.738l-.422.161zM10 56.133a5.45 5.45 0 0 1 3.509-5.095l-1.426-3.737A9.45 9.45 0 0 0 6 56.133zM58.69 60h11.443v-4H58.69zm-6.643-8.25a10.75 10.75 0 0 1 4.691 6.69l3.903-.88a14.75 14.75 0 0 0-6.438-9.18zm2.036-4.449a9.4 9.4 0 0 0-2.12 1.136l2.323 3.256a5.5 5.5 0 0 1 1.223-.655zm.422-.16l-.422.16l1.426 3.737l.422-.16zm12.99 0a18.22 18.22 0 0 0-12.99 0l1.426 3.736a14.22 14.22 0 0 1 10.138 0zm.422.16l-.422-.16l-1.426 3.736l.422.161zM74 56.133c0-3.92-2.42-7.434-6.083-8.832l-1.426 3.737A5.45 5.45 0 0 1 70 56.133zM70.133 60A3.867 3.867 0 0 0 74 56.133h-4c0-.073.06-.133.133-.133zM59.101 41.683a4.1 4.1 0 0 1-2.11-2.788l-3.915.823a8.1 8.1 0 0 0 4.171 5.51zm3.798 0a4.1 4.1 0 0 1-3.798 0l-1.854 3.545a8.1 8.1 0 0 0 7.506 0zm2.11-2.788a4.1 4.1 0 0 1-2.11 2.788l1.854 3.545a8.1 8.1 0 0 0 4.171-5.51zm.13-.618l-.13.618l3.915.823l.13-.618zm-.792-3.663a4.6 4.6 0 0 1 .792 3.663l3.915.823a8.6 8.6 0 0 0-1.483-6.853zm-.21-.286l.21.286l3.224-2.367l-.21-.287zM61 32.739c1.239 0 2.403.59 3.136 1.589l3.225-2.368A7.89 7.89 0 0 0 61 28.74zm-3.136 1.589A3.89 3.89 0 0 1 61 32.739v-4a7.89 7.89 0 0 0-6.36 3.221zm-.21.286l.21-.286l-3.224-2.368l-.21.287zm-.793 3.663a4.6 4.6 0 0 1 .792-3.663l-3.224-2.367a8.6 8.6 0 0 0-1.483 6.853zm.13.618l-.13-.618l-3.915.823l.13.618z"/><path fill="#f2994a" stroke="#f2994a" stroke-linecap="square" stroke-linejoin="round" stroke-width="4" d="M55.8 64H24.2a3.2 3.2 0 0 1-3.2-3.2a12.74 12.74 0 0 1 8.23-11.917l.831-.315a28.06 28.06 0 0 1 19.878 0l.831.315A12.74 12.74 0 0 1 59 60.8a3.2 3.2 0 0 1-3.2 3.2Z"/><path fill="#f2994a" stroke="#f2994a" stroke-linecap="round" stroke-linejoin="round" stroke-width="4" d="M35.141 39.078a10.546 10.546 0 0 0 15.176-7.175l.205-.967a11.32 11.32 0 0 0-1.975-9.08l-.33-.446a10.22 10.22 0 0 0-16.434 0l-.33.446a11.32 11.32 0 0 0-1.975 9.08l.205.967a10.55 10.55 0 0 0 5.458 7.175"/></g></svg>