<svg xmlns="http://www.w3.org/2000/svg" width="40" height="40" viewBox="0 0 40 40"><rect width="40" height="40" fill="none"/><g fill="none" stroke-miterlimit="10"><path fill="#ff52a1" stroke="#231f20" d="M35.08 23.52c4.2-4.18 5.58-9.06 3.39-13.86a1.31 1.31 0 0 0-2.11-.36c-3.38 3.33-6.6 6.29-7.63 6.59a3.7 3.7 0 0 1-3.83-.75a3.69 3.69 0 0 1-.72-3.82c.31-1 3.27-4.23 6.63-7.6a1.31 1.31 0 0 0-.34-2.11C25.68-.61 20.79.75 16.59 4.92c-3.94 3.92-5.4 8.47-3.75 13l-.93.92C7.22 23.48 1.94 29.5 1.26 31c-1.74 2.5-.16 4.88 1.33 6.38S6.46 40.42 9 38.7c1.44-.67 7.49-5.92 12.19-10.59l.91-.92c4.48 1.68 9.04.25 12.98-3.67Z" stroke-width="1"/><path stroke="#fff" stroke-linecap="round" d="M36.92 14.18a5.24 5.24 0 0 1-.77 3.6" stroke-width="1"/><path stroke="#231f20" stroke-linecap="round" d="M19 24.77a19.5 19.5 0 0 1-3.7-3.72" stroke-width="1"/></g></svg>